<?xml version="1.0" encoding="utf-8"?>
<svg version="1.1" id="Layer_1"
xmlns="http://www.w3.org/2000/svg"
xmlns:xlink="http://www.w3.org/1999/xlink"
width="211px" height="63px"
xml:space="preserve">
<g id="PathID_353" transform="matrix(0.520664, 0, 0, 0.520664, 30.85, 43.3)" opacity="1">
<path style="fill:#F29200;fill-opacity:1" d="M35.8 -3.2Q33.9 17.1 19.95 32.1L11.8 33.45L0.2 34.3L-11.65 33.55Q-21.25 32.05 -30.5 28.7L-31.4 27.7Q-34.3 24.05 -35.65 19.7L-36 18.45Q-17.2 25.4 1.55 17.95Q20.8 10.4 28.45 -8.65Q33.65 -21.6 27.65 -34.25Q37.5 -20.2 35.8 -3.2" />
</g>
<g id="PathID_354" transform="matrix(0.520664, 0, 0, 0.520664, 30.85, 43.3)" opacity="1">
</g>
<g id="PathID_355" transform="matrix(0.520664, 0, 0, 0.520664, 45.6, 36.2)" opacity="1">
<path style="fill:#F44691;fill-opacity:1" d="M29.1 -1.3Q27.9 4.35 26.3 9.95Q24.6 15.65 21.95 21Q17.6 29.7 11.55 37.45L10.3 37.95Q6 39.65 1.35 39.55L0.1 39.5Q12.5 23.75 11.25 3.65Q10 -17.05 -5.75 -30.2Q-16.45 -39.15 -30.35 -37.4Q-14 -42.35 1.7 -35.55Q20.4 -27.45 30.35 -9.55Q29.95 -5.35 29.1 -1.3" />
</g>
<g id="PathID_356" transform="matrix(0.520664, 0, 0, 0.520664, 45.6, 36.2)" opacity="1">
</g>
<g id="PathID_357" transform="matrix(0.520664, 0, 0, 0.520664, 38.7, 16.05)" opacity="1">
<path style="fill:#9F1881;fill-opacity:1" d="M29.55 -7.1Q36.5 -0.3 42 7.85L42.1 9.2Q42.35 13.8 40.85 18.2L40.45 19.4Q29.3 2.75 9.75 -2.3Q-10.3 -7.5 -27.7 3.4Q-39.5 10.8 -42.1 24.6Q-41.75 7.45 -30.45 -5.35Q-16.95 -20.6 3.2 -24.55Q7 -22.85 10.55 -20.85L20.4 -14.75Q25.35 -11.3 29.55 -7.1" />
</g>
<g id="PathID_358" transform="matrix(0.520664, 0, 0, 0.520664, 38.7, 16.05)" opacity="1">
</g>
<g id="PathID_359" transform="matrix(0.520664, 0, 0, 0.520664, 20.9, 22.85)" opacity="1">
<path style="fill:#0097DC;fill-opacity:1" d="M26.9 -37.5Q7.6 -32.05 -3.2 -15.05Q-14.35 2.45 -9.35 22.35Q-5.95 35.85 6.35 42.6Q-9.8 37 -18.5 22.25Q-28.9 4.7 -26.4 -15.65L-20.6 -21.5Q-16.25 -25.45 -11.7 -29Q-6.95 -32.65 -1.65 -35.4Q7 -39.85 16.4 -42.55L17.7 -42.25Q22.2 -41.05 25.9 -38.3L26.9 -37.5" />
</g>
<g id="PathID_360" transform="matrix(0.520664, 0, 0, 0.520664, 20.9, 22.85)" opacity="1">
</g>
<g id="PathID_361" transform="matrix(0.520664, 0, 0, 0.520664, 21.6, 36.2)" opacity="1">
<path style="fill:#FED000;fill-opacity:1" d="M-38.9 -23.1L-38.2 -24.25Q-35.65 -28.15 -31.85 -30.85L-30.85 -31.55Q-31.6 -11.5 -18.75 4.05Q-5.6 20.05 14.9 21.45Q28.8 22.35 39 12.75Q28.65 26.4 11.95 30.1Q-7.95 34.55 -26.5 25.9L-30.35 18.6L-34.7 7.8Q-36.65 2.15 -37.65 -3.75Q-39.2 -13.3 -38.9 -23.1" />
</g>
<g id="PathID_362" transform="matrix(0.520664, 0, 0, 0.520664, 21.6, 36.2)" opacity="1">
</g>
<g id="PathID_363" transform="matrix(1.38354, 0, 0, 0.140321, 138.15, 53.35)" opacity="1">
<path style="fill:#9F1881;fill-opacity:1" d="M51.5 -51.5L51.5 51.5L-51.5 51.5L-51.5 -51.5L51.5 -51.5" />
</g>
<g id="PathID_364" transform="matrix(1.38354, 0, 0, 0.140321, 138.15, 53.35)" opacity="1">
</g>
<g id="PathID_365" transform="matrix(0.244066, 0, 0, 0.244066, 73.5, 57.75)" opacity="1">
<path style="fill:#FFFFFF;fill-opacity:1" d="M29.4 -35.85L17.65 -13L17.65 0L11.7 0L11.7 -12.9L0.25 -35.85L7 -35.85L14.05 -20.45Q14.2 -20.2 14.8 -18.4L14.9 -18.4Q15.1 -19.2 15.7 -20.45L23.1 -35.85L29.4 -35.85" />
</g>
<g id="PathID_366" transform="matrix(0.244066, 0, 0, 0.244066, 73.5, 57.75)" opacity="1">
</g>
<g id="PathID_367" transform="matrix(0.244066, 0, 0, 0.244066, 81.15, 57.75)" opacity="1">
<path style="fill:#FFFFFF;fill-opacity:1" d="M15.1 0.6Q9.2 0.6 5.65 -2.95Q2.1 -6.55 2.1 -12.5Q2.1 -18.95 5.8 -22.55Q9.5 -26.2 15.75 -26.2Q21.75 -26.2 25.1 -22.65Q28.45 -19.15 28.45 -12.9Q28.45 -6.75 24.8 -3.05Q21.2 0.6 15.1 0.6M15.4 -21.55Q12 -21.55 10 -19.15Q8.05 -16.8 8.05 -12.65Q8.05 -8.6 10.05 -6.3Q12.05 -4 15.4 -4Q18.8 -4 20.65 -6.25Q22.5 -8.55 22.5 -12.75Q22.5 -16.95 20.65 -19.25Q18.8 -21.55 15.4 -21.55" />
</g>
<g id="PathID_368" transform="matrix(0.244066, 0, 0, 0.244066, 81.15, 57.75)" opacity="1">
</g>
<g id="PathID_369" transform="matrix(0.244066, 0, 0, 0.244066, 90.15, 57.75)" opacity="1">
<path style="fill:#FFFFFF;fill-opacity:1" d="M26.1 0L20.3 0L20.3 -4.05L20.2 -4.05Q17.65 0.6 12.35 0.6Q3.25 0.6 3.25 -10.3L3.25 -25.6L9.05 -25.6L9.05 -10.9Q9.05 -4 14.4 -4Q16.95 -4 18.6 -5.9Q20.3 -7.8 20.3 -10.85L20.3 -25.6L26.1 -25.6L26.1 0" />
</g>
<g id="PathID_370" transform="matrix(0.244066, 0, 0, 0.244066, 90.15, 57.75)" opacity="1">
</g>
<g id="PathID_371" transform="matrix(0.244066, 0, 0, 0.244066, 99, 57.75)" opacity="1">
<path style="fill:#FFFFFF;fill-opacity:1" d="M17.25 -0.25Q15.55 0.6 12.8 0.6Q5.35 0.6 5.35 -6.55L5.35 -21.05L1.05 -21.05L1.05 -25.6L5.35 -25.6L5.35 -31.5L11.15 -33.15L11.15 -25.6L17.25 -25.6L17.25 -21.05L11.15 -21.05L11.15 -8.25Q11.15 -5.95 11.95 -4.95Q12.8 -4 14.7 -4Q16.2 -4 17.25 -4.85L17.25 -0.25" />
</g>
<g id="PathID_372" transform="matrix(0.244066, 0, 0, 0.244066, 99, 57.75)" opacity="1">
</g>
<g id="PathID_373" transform="matrix(0.244066, 0, 0, 0.244066, 105.05, 57.75)" opacity="1">
<path style="fill:#FFFFFF;fill-opacity:1" d="M26.5 0L20.7 0L20.7 -14Q20.7 -21.6 15.65 -21.6Q13.1 -21.6 11.35 -19.4Q9.6 -17.2 9.6 -13.75L9.6 0L3.75 0L3.75 -37.9L9.6 -37.9L9.6 -21.35L9.7 -21.35Q12.6 -26.2 18 -26.2Q26.5 -26.2 26.5 -15.75L26.5 0" />
</g>
<g id="PathID_374" transform="matrix(0.244066, 0, 0, 0.244066, 105.05, 57.75)" opacity="1">
</g>
<g id="PathID_375" transform="matrix(0.244066, 0, 0, 0.244066, 118.85, 57.75)" opacity="1">
<path style="fill:#FFFFFF;fill-opacity:1" d="M23.75 -30.8L10.35 -30.8L10.35 -20L22.7 -20L22.7 -15L10.35 -15L10.35 0L4.4 0L4.4 -35.85L23.75 -35.85L23.75 -30.8" />
</g>
<g id="PathID_376" transform="matrix(0.244066, 0, 0, 0.244066, 118.85, 57.75)" opacity="1">
</g>
<g id="PathID_377" transform="matrix(0.244066, 0, 0, 0.244066, 126.7, 57.75)" opacity="1">
<path style="fill:#FFFFFF;fill-opacity:1" d="M15.1 0.6Q9.2 0.6 5.65 -2.95Q2.1 -6.55 2.1 -12.5Q2.1 -18.95 5.8 -22.55Q9.5 -26.2 15.75 -26.2Q21.75 -26.2 25.1 -22.65Q28.45 -19.15 28.45 -12.9Q28.45 -6.75 24.8 -3.05Q21.2 0.6 15.1 0.6M15.4 -21.55Q12 -21.55 10 -19.15Q8.05 -16.8 8.05 -12.65Q8.05 -8.6 10.05 -6.3Q12.05 -4 15.4 -4Q18.8 -4 20.65 -6.25Q22.5 -8.55 22.5 -12.75Q22.5 -16.95 20.65 -19.25Q18.8 -21.55 15.4 -21.55" />
</g>
<g id="PathID_378" transform="matrix(0.244066, 0, 0, 0.244066, 126.7, 57.75)" opacity="1">
</g>
<g id="PathID_379" transform="matrix(0.244066, 0, 0, 0.244066, 135.7, 57.75)" opacity="1">
<path style="fill:#FFFFFF;fill-opacity:1" d="M18.6 -20.05Q17.55 -20.9 15.6 -20.9Q13 -20.9 11.25 -18.55Q9.55 -16.25 9.55 -12.25L9.55 0L3.75 0L3.75 -25.6L9.55 -25.6L9.55 -20.3L9.65 -20.3Q10.5 -23 12.25 -24.5Q14.05 -26.05 16.2 -26.05Q17.8 -26.05 18.6 -25.55L18.6 -20.05" />
</g>
<g id="PathID_380" transform="matrix(0.244066, 0, 0, 0.244066, 135.7, 57.75)" opacity="1">
</g>
<g id="PathID_381" transform="matrix(0.244066, 0, 0, 0.244066, 146.85, 57.75)" opacity="1">
<path style="fill:#FFFFFF;fill-opacity:1" d="M10.35 -13L10.35 0L4.4 0L4.4 -35.85L15.3 -35.85Q21.45 -35.85 24.85 -32.95Q28.25 -30.1 28.25 -24.85Q28.25 -19.65 24.7 -16.3Q21.15 -13 15.1 -13L10.35 -13M10.35 -30.95L10.35 -17.85L14.2 -17.85Q18 -17.85 20 -19.6Q22 -21.4 22 -24.6Q22 -30.95 14.65 -30.95L10.35 -30.95" />
</g>
<g id="PathID_382" transform="matrix(0.244066, 0, 0, 0.244066, 146.85, 57.75)" opacity="1">
</g>
<g id="PathID_383" transform="matrix(0.244066, 0, 0, 0.244066, 155.35, 57.75)" opacity="1">
<path style="fill:#FFFFFF;fill-opacity:1" d="M23.4 0L17.8 0L17.8 -4L17.7 -4Q15.05 0.6 9.9 0.6Q6.15 0.6 4 -1.45Q1.85 -3.5 1.85 -6.85Q1.85 -14.1 10.2 -15.3L17.8 -16.4Q17.8 -21.85 12.6 -21.85Q8.05 -21.85 4.35 -18.7L4.35 -23.8Q8.4 -26.2 13.7 -26.2Q23.4 -26.2 23.4 -16.65L23.4 0M17.8 -12.55L12.45 -11.8Q9.95 -11.5 8.65 -10.6Q7.4 -9.7 7.4 -7.5Q7.4 -5.85 8.55 -4.8Q9.75 -3.8 11.7 -3.8Q14.35 -3.8 16.05 -5.65Q17.8 -7.5 17.8 -10.35L17.8 -12.55" />
</g>
<g id="PathID_384" transform="matrix(0.244066, 0, 0, 0.244066, 155.35, 57.75)" opacity="1">
</g>
<g id="PathID_385" transform="matrix(0.244066, 0, 0, 0.244066, 163.4, 57.75)" opacity="1">
<path style="fill:#FFFFFF;fill-opacity:1" d="M27 0L19.65 0L9.7 -12.3L9.6 -12.3L9.6 0L3.75 0L3.75 -37.9L9.6 -37.9L9.6 -13.85L9.7 -13.85L19.1 -25.6L26.05 -25.6L15.5 -13.25L27 0" />
</g>
<g id="PathID_386" transform="matrix(0.244066, 0, 0, 0.244066, 163.4, 57.75)" opacity="1">
</g>
<g id="PathID_387" transform="matrix(0.244066, 0, 0, 0.244066, 171.55, 57.75)" opacity="1">
<path style="fill:#FFFFFF;fill-opacity:1" d="M6.7 -30.95Q5.25 -30.95 4.25 -31.85Q3.25 -32.8 3.25 -34.25Q3.25 -35.65 4.25 -36.6Q5.25 -37.55 6.7 -37.55Q8.15 -37.55 9.15 -36.6Q10.2 -35.65 10.2 -34.25Q10.2 -32.9 9.15 -31.9Q8.15 -30.95 6.7 -30.95M9.55 0L3.75 0L3.75 -25.6L9.55 -25.6L9.55 0" />
</g>
<g id="PathID_388" transform="matrix(0.244066, 0, 0, 0.244066, 171.55, 57.75)" opacity="1">
</g>
<g id="PathID_389" transform="matrix(0.244066, 0, 0, 0.244066, 176.35, 57.75)" opacity="1">
<path style="fill:#FFFFFF;fill-opacity:1" d="M2.15 -0.8L2.15 -6.15Q5.4 -3.7 9.35 -3.7Q14.6 -3.7 14.6 -6.8Q14.6 -7.65 14.15 -8.25Q13.7 -8.9 12.9 -9.35Q12.15 -9.85 11.1 -10.2L8.8 -11.05Q7.25 -11.7 5.95 -12.4Q4.7 -13.1 3.85 -13.95Q3.05 -14.85 2.6 -15.95Q2.2 -17.1 2.2 -18.6Q2.2 -20.45 3.05 -21.85Q3.95 -23.3 5.4 -24.25Q6.9 -25.2 8.75 -25.7Q10.65 -26.2 12.65 -26.2Q16.2 -26.2 19 -25.1L19 -20.05Q16.3 -21.9 12.8 -21.9Q11.7 -21.9 10.8 -21.65Q9.9 -21.45 9.25 -21.05Q8.65 -20.65 8.3 -20.05Q7.95 -19.5 7.95 -18.85Q7.95 -18 8.3 -17.4Q8.65 -16.85 9.35 -16.4Q10.05 -16 11 -15.6L13.2 -14.85Q14.85 -14.15 16.15 -13.45Q17.5 -12.75 18.4 -11.85Q19.35 -11 19.85 -9.8Q20.35 -8.65 20.35 -7.05Q20.35 -5.1 19.45 -3.65Q18.55 -2.2 17.05 -1.25Q15.55 -0.3 13.55 0.15Q11.6 0.6 9.45 0.6Q5.25 0.6 2.15 -0.8" />
</g>
<g id="PathID_390" transform="matrix(0.244066, 0, 0, 0.244066, 176.35, 57.75)" opacity="1">
</g>
<g id="PathID_391" transform="matrix(0.244066, 0, 0, 0.244066, 183.3, 57.75)" opacity="1">
<path style="fill:#FFFFFF;fill-opacity:1" d="M17.25 -0.25Q15.55 0.6 12.8 0.6Q5.35 0.6 5.35 -6.55L5.35 -21.05L1.05 -21.05L1.05 -25.6L5.35 -25.6L5.35 -31.5L11.15 -33.15L11.15 -25.6L17.25 -25.6L17.25 -21.05L11.15 -21.05L11.15 -8.25Q11.15 -5.95 11.95 -4.95Q12.8 -4 14.7 -4Q16.2 -4 17.25 -4.85L17.25 -0.25" />
</g>
<g id="PathID_392" transform="matrix(0.244066, 0, 0, 0.244066, 183.3, 57.75)" opacity="1">
</g>
<g id="PathID_393" transform="matrix(0.244066, 0, 0, 0.244066, 189.35, 57.75)" opacity="1">
<path style="fill:#FFFFFF;fill-opacity:1" d="M23.4 0L17.8 0L17.8 -4L17.7 -4Q15.05 0.6 9.9 0.6Q6.15 0.6 4 -1.45Q1.85 -3.5 1.85 -6.85Q1.85 -14.1 10.2 -15.3L17.8 -16.4Q17.8 -21.85 12.6 -21.85Q8.05 -21.85 4.35 -18.7L4.35 -23.8Q8.4 -26.2 13.7 -26.2Q23.4 -26.2 23.4 -16.65L23.4 0M17.8 -12.55L12.45 -11.8Q9.95 -11.5 8.65 -10.6Q7.4 -9.7 7.4 -7.5Q7.4 -5.85 8.55 -4.8Q9.75 -3.8 11.7 -3.8Q14.35 -3.8 16.05 -5.65Q17.8 -7.5 17.8 -10.35L17.8 -12.55" />
</g>
<g id="PathID_394" transform="matrix(0.244066, 0, 0, 0.244066, 189.35, 57.75)" opacity="1">
</g>
<g id="PathID_395" transform="matrix(0.244066, 0, 0, 0.244066, 197.45, 57.75)" opacity="1">
<path style="fill:#FFFFFF;fill-opacity:1" d="M26.55 0L20.75 0L20.75 -14.4Q20.75 -21.6 15.7 -21.6Q13.05 -21.6 11.3 -19.6Q9.6 -17.6 9.6 -14.6L9.6 0L3.75 0L3.75 -25.6L9.6 -25.6L9.6 -21.35L9.7 -21.35Q12.55 -26.2 18 -26.2Q22.15 -26.2 24.35 -23.45Q26.55 -20.75 26.55 -15.65L26.55 0" />
</g>
<g id="PathID_396" transform="matrix(0.244066, 0, 0, 0.244066, 197.45, 57.75)" opacity="1">
</g>
<g id="PathID_397" transform="matrix(0.428601, 0, 0, 0.428601, 67.35, 18.5)" opacity="1">
<path style="fill:#0097DC;fill-opacity:1" d="M13.35 0L13.35 -15.4L-0.1 -36.65L8.65 -36.65L17.2 -22.1L25.65 -36.65L34.15 -36.65L20.75 -15.35L20.75 0L13.35 0" />
</g>
<g id="PathID_398" transform="matrix(0.428601, 0, 0, 0.428601, 67.35, 18.5)" opacity="1">
</g>
<g id="PathID_399" transform="matrix(0.428601, 0, 0, 0.428601, 78.75, 18.5)" opacity="1">
<path style="fill:#0097DC;fill-opacity:1" d="M2 -13.65Q2 -17.15 3.7 -20.4Q5.45 -23.7 8.6 -25.4Q11.75 -27.15 15.7 -27.15Q21.7 -27.15 25.55 -23.2Q29.45 -19.3 29.45 -13.35Q29.45 -7.3 25.55 -3.35Q21.65 0.6 15.75 0.6Q12.05 0.6 8.75 -1.05Q5.45 -2.7 3.7 -5.85Q2 -9.05 2 -13.65M9.2 -13.25Q9.2 -9.3 11.05 -7.2Q12.95 -5.15 15.7 -5.15Q18.45 -5.15 20.3 -7.2Q22.2 -9.3 22.2 -13.3Q22.2 -17.2 20.3 -19.3Q18.45 -21.4 15.7 -21.4Q12.95 -21.4 11.05 -19.3Q9.2 -17.2 9.2 -13.25" />
</g>
<g id="PathID_400" transform="matrix(0.428601, 0, 0, 0.428601, 78.75, 18.5)" opacity="1">
</g>
<g id="PathID_401" transform="matrix(0.428601, 0, 0, 0.428601, 90.7, 18.5)" opacity="1">
<path style="fill:#0097DC;fill-opacity:1" d="M21.15 0L21.15 -3.95Q19.7 -1.85 17.3 -0.6Q14.95 0.6 12.35 0.6Q9.65 0.6 7.5 -0.55Q5.4 -1.75 4.45 -3.85Q3.55 -6 3.55 -9.75L3.55 -26.55L10.6 -26.55L10.6 -14.35Q10.6 -8.75 10.95 -7.5Q11.35 -6.25 12.35 -5.5Q13.4 -4.8 14.95 -4.8Q16.75 -4.8 18.15 -5.75Q19.6 -6.75 20.1 -8.2Q20.65 -9.65 20.65 -15.35L20.65 -26.55L27.7 -26.55L27.7 0L21.15 0" />
</g>
<g id="PathID_402" transform="matrix(0.428601, 0, 0, 0.428601, 90.7, 18.5)" opacity="1">
</g>
<g id="PathID_403" transform="matrix(0.428601, 0, 0, 0.428601, 102.7, 18.5)" opacity="1">
<path style="fill:#0097DC;fill-opacity:1" d="M27.8 0L20.75 0L20.75 -13.5Q20.75 -17.8 20.3 -19.05Q19.85 -20.35 18.8 -21.05Q17.8 -21.75 16.4 -21.75Q14.6 -21.75 13.15 -20.75Q11.7 -19.75 11.15 -18.1Q10.65 -16.45 10.65 -12L10.65 0L3.6 0L3.6 -26.55L10.15 -26.55L10.15 -22.65Q13.6 -27.15 18.85 -27.15Q21.2 -27.15 23.1 -26.3Q25.05 -25.45 26 -24.15Q27 -22.85 27.4 -21.2Q27.8 -19.55 27.8 -16.5L27.8 0" />
</g>
<g id="PathID_404" transform="matrix(0.428601, 0, 0, 0.428601, 102.7, 18.5)" opacity="1">
</g>
<g id="PathID_405" transform="matrix(0.428601, 0, 0, 0.428601, 114.7, 18.5)" opacity="1">
<path style="fill:#0097DC;fill-opacity:1" d="M3 1.7L11.05 2.7Q11.2 4.15 11.95 4.65Q12.95 5.4 15.1 5.4Q17.85 5.4 19.2 4.6Q20.15 4.05 20.6 2.8Q20.95 1.95 20.95 -0.45L20.95 -4.35Q17.8 0 13 0Q7.65 0 4.5 -4.5Q2.1 -8.1 2.1 -13.4Q2.1 -20.1 5.3 -23.6Q8.5 -27.15 13.25 -27.15Q18.2 -27.15 21.4 -22.8L21.4 -26.55L28 -26.55L28 -2.7Q28 2 27.2 4.3Q26.4 6.65 25 7.95Q23.6 9.3 21.25 10.05Q18.95 10.8 15.35 10.8Q8.6 10.8 5.75 8.45Q2.95 6.15 2.95 2.6L3 1.7M9.3 -13.8Q9.3 -9.6 10.9 -7.65Q12.55 -5.7 14.95 -5.7Q17.5 -5.7 19.25 -7.7Q21.05 -9.7 21.05 -13.65Q21.05 -17.75 19.35 -19.75Q17.65 -21.75 15.05 -21.75Q12.55 -21.75 10.9 -19.75Q9.3 -17.8 9.3 -13.8" />
</g>
<g id="PathID_406" transform="matrix(0.428601, 0, 0, 0.428601, 114.7, 18.5)" opacity="1">
</g>
<g id="PathID_407" transform="matrix(0.428601, 0, 0, 0.428601, 129.7, 19.05)" opacity="1">
<path style="fill:#0097DC;fill-opacity:1" d="M3.75 0L3.75 -35.75L19 -35.75Q29.2 -35.75 29.2 -27.15Q29.2 -17.5 14.95 -15.2L14 -19.1Q24.25 -20.7 24.25 -26.95Q24.25 -31.9 18.55 -31.9L8.35 -31.9L8.35 0L3.75 0" />
</g>
<g id="PathID_408" transform="matrix(0.428601, 0, 0, 0.428601, 129.7, 19.05)" opacity="1">
</g>
<g id="PathID_409" transform="matrix(0.428601, 0, 0, 0.428601, 142.1, 19.05)" opacity="1">
<path style="fill:#0097DC;fill-opacity:1" d="M2.5 -8.15Q2.5 -16.25 13.15 -16.25Q17.05 -16.25 20 -15.75L20 -18.2Q20 -22.5 12.9 -22.5Q8.85 -22.5 4.6 -21.25L4.6 -25Q8.85 -26.25 12.9 -26.25Q24.6 -26.25 24.6 -17.85L24.6 0L22.25 0L20.4 -1.85Q17 0 12.35 0Q2.5 0 2.5 -8.15M13.15 -12.5Q7.1 -12.5 7.1 -8.25Q7.1 -3.75 12.35 -3.75Q17.15 -3.75 20 -5.8L20 -12Q17.25 -12.5 13.15 -12.5" />
</g>
<g id="PathID_410" transform="matrix(0.428601, 0, 0, 0.428601, 142.1, 19.05)" opacity="1">
</g>
<g id="PathID_411" transform="matrix(0.428601, 0, 0, 0.428601, 153.3, 19.05)" opacity="1">
<path style="fill:#0097DC;fill-opacity:1" d="M3.75 0L3.75 -35.75L8.35 -35.75L8.35 -24.2Q12.45 -26.25 17.45 -26.25Q27 -26.25 27 -18.65Q27 -13.15 19.5 -11.05L27.9 0L22.05 0L13.7 -11.1L13.7 -13.2Q22.35 -13.95 22.35 -18.7Q22.35 -22.5 16.85 -22.5Q12.55 -22.5 8.35 -20.15L8.35 0L3.75 0" />
</g>
<g id="PathID_412" transform="matrix(0.428601, 0, 0, 0.428601, 153.3, 19.05)" opacity="1">
</g>
<g id="PathID_413" transform="matrix(0.428601, 0, 0, 0.428601, 165.05, 19.05)" opacity="1">
<path style="fill:#0097DC;fill-opacity:1" d="M8.35 -35.75L8.35 -32L3.75 -32L3.75 -35.75L8.35 -35.75M8.35 -26.25L8.35 0L3.75 0L3.75 -26.25L8.35 -26.25" />
</g>
<g id="PathID_414" transform="matrix(0.428601, 0, 0, 0.428601, 165.05, 19.05)" opacity="1">
</g>
<g id="PathID_415" transform="matrix(0.428601, 0, 0, 0.428601, 169.3, 19.05)" opacity="1">
<path style="fill:#0097DC;fill-opacity:1" d="M3.75 -1.25L3.75 -5.25Q8.1 -3.75 12.85 -3.75Q19.1 -3.75 19.1 -7.5Q19.1 -11 15 -11L10.75 -11Q2.5 -11 2.5 -18.75Q2.5 -26.25 13.4 -26.25Q18.1 -26.25 22.5 -25L22.5 -21Q18.1 -22.5 13.4 -22.5Q6.85 -22.5 6.85 -18.75Q6.85 -15.25 10.75 -15.25L15 -15.25Q23.75 -15.25 23.75 -7.5Q23.75 0 12.85 0Q8.1 0 3.75 -1.25" />
</g>
<g id="PathID_416" transform="matrix(0.428601, 0, 0, 0.428601, 169.3, 19.05)" opacity="1">
</g>
<g id="PathID_417" transform="matrix(0.428601, 0, 0, 0.428601, 179.6, 19.05)" opacity="1">
<path style="fill:#0097DC;fill-opacity:1" d="M3.75 -30.5L6.65 -30.5L7.65 -26.25L13.75 -26.25L13.75 -22.5L8.35 -22.5L8.35 -7.4Q8.35 -3.75 11.55 -3.75L13.75 -3.75L13.75 0L10.35 0Q3.75 0 3.75 -7.05L3.75 -30.5" />
</g>
<g id="PathID_418" transform="matrix(0.428601, 0, 0, 0.428601, 179.6, 19.05)" opacity="1">
</g>
<g id="PathID_419" transform="matrix(0.428601, 0, 0, 0.428601, 185.6, 19.05)" opacity="1">
<path style="fill:#0097DC;fill-opacity:1" d="M2.5 -8.15Q2.5 -16.25 13.15 -16.25Q17.05 -16.25 20 -15.75L20 -18.2Q20 -22.5 12.9 -22.5Q8.85 -22.5 4.6 -21.25L4.6 -25Q8.85 -26.25 12.9 -26.25Q24.6 -26.25 24.6 -17.85L24.6 0L22.25 0L20.4 -1.85Q17 0 12.35 0Q2.5 0 2.5 -8.15M13.15 -12.5Q7.1 -12.5 7.1 -8.25Q7.1 -3.75 12.35 -3.75Q17.15 -3.75 20 -5.8L20 -12Q17.25 -12.5 13.15 -12.5" />
</g>
<g id="PathID_420" transform="matrix(0.428601, 0, 0, 0.428601, 185.6, 19.05)" opacity="1">
</g>
<g id="PathID_421" transform="matrix(0.428601, 0, 0, 0.428601, 196.85, 19.05)" opacity="1">
<path style="fill:#0097DC;fill-opacity:1" d="M3.75 0L3.75 -26.25L6.85 -26.25L7.7 -22.9Q12.45 -26.25 17.3 -26.25Q26.35 -26.25 26.35 -16.45L26.35 0L21.75 0L21.75 -16.55Q21.75 -22.4 15.9 -22.4Q11.95 -22.4 8.35 -19.05L8.35 0L3.75 0" />
</g>
<g id="PathID_422" transform="matrix(0.428601, 0, 0, 0.428601, 196.85, 19.05)" opacity="1">
</g>
<g id="PathID_423" transform="matrix(0.428601, 0, 0, 0.428601, 67.4, 39.7)" opacity="1">
<path style="fill:#0097DC;fill-opacity:1" d="M27.15 -13.5L34.35 -11.25Q32.7 -5.2 28.85 -2.25Q25 0.65 19.1 0.65Q11.8 0.65 7.1 -4.3Q2.45 -9.3 2.45 -17.95Q2.45 -27.15 7.15 -32.2Q11.85 -37.3 19.55 -37.3Q26.3 -37.3 30.5 -33.3Q33 -30.95 34.25 -26.55L26.9 -24.8Q26.25 -27.65 24.15 -29.3Q22.1 -30.95 19.2 -30.95Q15.15 -30.95 12.6 -28Q10.1 -25.1 10.1 -18.55Q10.1 -11.6 12.55 -8.65Q15.05 -5.7 19.05 -5.7Q21.95 -5.7 24.05 -7.55Q26.2 -9.45 27.15 -13.5" />
</g>
<g id="PathID_424" transform="matrix(0.428601, 0, 0, 0.428601, 67.4, 39.7)" opacity="1">
</g>
<g id="PathID_425" transform="matrix(0.428601, 0, 0, 0.428601, 82.35, 39.7)" opacity="1">
<path style="fill:#0097DC;fill-opacity:1" d="M10.65 -36.65L10.65 -23.1Q14.05 -27.15 18.75 -27.15Q21.2 -27.15 23.15 -26.25Q25.1 -25.35 26.05 -23.95Q27.05 -22.55 27.4 -20.85Q27.8 -19.15 27.8 -15.55L27.8 0L20.75 0L20.75 -14Q20.75 -18.15 20.35 -19.25Q19.95 -20.4 18.9 -21.05Q17.9 -21.75 16.4 -21.75Q14.65 -21.75 13.25 -20.9Q11.9 -20.05 11.25 -18.3Q10.65 -16.6 10.65 -13.25L10.65 0L3.6 0L3.6 -36.65L10.65 -36.65" />
</g>
<g id="PathID_426" transform="matrix(0.428601, 0, 0, 0.428601, 82.35, 39.7)" opacity="1">
</g>
<g id="PathID_427" transform="matrix(0.428601, 0, 0, 0.428601, 94.8, 39.7)" opacity="1">
<path style="fill:#0097DC;fill-opacity:1" d="M8.95 -18.35L2.6 -19.5Q3.65 -23.4 6.25 -25.25Q8.9 -27.15 14.05 -27.15Q18.75 -27.15 21.05 -26Q23.35 -24.9 24.3 -23.2Q25.25 -21.5 25.25 -16.9L25.15 -8.7Q25.15 -5.2 25.45 -3.55Q25.8 -1.9 26.75 0L19.8 0Q19.5 -0.7 19.1 -2.05L18.85 -2.9Q17.05 -1.15 15 -0.25Q12.95 0.6 10.65 0.6Q6.55 0.6 4.2 -1.6Q1.85 -3.8 1.85 -7.2Q1.85 -9.45 2.9 -11.2Q3.95 -12.95 5.9 -13.85Q7.85 -14.8 11.45 -15.5Q16.4 -16.45 18.3 -17.25L18.3 -17.95Q18.3 -20 17.3 -20.85Q16.3 -21.75 13.55 -21.75Q11.65 -21.75 10.6 -20.95Q9.55 -20.2 8.95 -18.35M18.3 -12.65Q16.95 -12.2 14.05 -11.55Q11.15 -10.95 10.25 -10.35Q8.9 -9.4 8.9 -7.9Q8.9 -6.45 9.95 -5.4Q11.05 -4.35 12.75 -4.35Q14.65 -4.35 16.35 -5.55Q17.6 -6.5 18 -7.85Q18.3 -8.75 18.3 -11.25L18.3 -12.65" />
</g>
<g id="PathID_428" transform="matrix(0.428601, 0, 0, 0.428601, 94.8, 39.7)" opacity="1">
</g>
<g id="PathID_429" transform="matrix(0.428601, 0, 0, 0.428601, 106.05, 39.7)" opacity="1">
<path style="fill:#0097DC;fill-opacity:1" d="M3.7 0L3.7 -36.65L10.75 -36.65L10.75 0L3.7 0" />
</g>
<g id="PathID_430" transform="matrix(0.428601, 0, 0, 0.428601, 106.05, 39.7)" opacity="1">
</g>
<g id="PathID_431" transform="matrix(0.428601, 0, 0, 0.428601, 111.25, 39.7)" opacity="1">
<path style="fill:#0097DC;fill-opacity:1" d="M3.7 0L3.7 -36.65L10.75 -36.65L10.75 0L3.7 0" />
</g>
<g id="PathID_432" transform="matrix(0.428601, 0, 0, 0.428601, 111.25, 39.7)" opacity="1">
</g>
<g id="PathID_433" transform="matrix(0.428601, 0, 0, 0.428601, 116.4, 39.7)" opacity="1">
<path style="fill:#0097DC;fill-opacity:1" d="M19.05 -8.45L26.05 -7.25Q24.7 -3.4 21.75 -1.4Q18.85 0.6 14.5 0.6Q7.55 0.6 4.25 -3.9Q1.65 -7.55 1.65 -13.05Q1.65 -19.65 5.1 -23.4Q8.55 -27.15 13.8 -27.15Q19.75 -27.15 23.15 -23.2Q26.6 -19.3 26.45 -11.25L8.85 -11.25Q8.9 -8.1 10.5 -6.35Q12.15 -4.65 14.55 -4.65Q16.2 -4.65 17.3 -5.55Q18.45 -6.45 19.05 -8.45M19.45 -15.55Q19.35 -18.55 17.85 -20.15Q16.35 -21.75 14.2 -21.75Q11.9 -21.75 10.4 -20.05Q8.95 -18.4 8.95 -15.55L19.45 -15.55" />
</g>
<g id="PathID_434" transform="matrix(0.428601, 0, 0, 0.428601, 116.4, 39.7)" opacity="1">
</g>
<g id="PathID_435" transform="matrix(0.428601, 0, 0, 0.428601, 127.65, 39.7)" opacity="1">
<path style="fill:#0097DC;fill-opacity:1" d="M27.8 0L20.75 0L20.75 -13.5Q20.75 -17.8 20.3 -19.05Q19.85 -20.35 18.8 -21.05Q17.8 -21.75 16.4 -21.75Q14.6 -21.75 13.15 -20.75Q11.7 -19.75 11.15 -18.1Q10.65 -16.45 10.65 -12L10.65 0L3.6 0L3.6 -26.55L10.15 -26.55L10.15 -22.65Q13.6 -27.15 18.85 -27.15Q21.2 -27.15 23.1 -26.3Q25.05 -25.45 26 -24.15Q27 -22.85 27.4 -21.2Q27.8 -19.55 27.8 -16.5L27.8 0" />
</g>
<g id="PathID_436" transform="matrix(0.428601, 0, 0, 0.428601, 127.65, 39.7)" opacity="1">
</g>
<g id="PathID_437" transform="matrix(0.428601, 0, 0, 0.428601, 140.15, 39.7)" opacity="1">
<path style="fill:#0097DC;fill-opacity:1" d="M3 1.7L11.05 2.7Q11.2 4.15 11.95 4.65Q12.95 5.4 15.1 5.4Q17.85 5.4 19.2 4.6Q20.15 4.05 20.6 2.8Q20.95 1.95 20.95 -0.45L20.95 -4.35Q17.8 0 13 0Q7.65 0 4.5 -4.5Q2.1 -8.1 2.1 -13.4Q2.1 -20.1 5.3 -23.6Q8.5 -27.15 13.25 -27.15Q18.2 -27.15 21.4 -22.8L21.4 -26.55L28 -26.55L28 -2.7Q28 2 27.2 4.3Q26.4 6.65 25 7.95Q23.6 9.3 21.25 10.05Q18.95 10.8 15.35 10.8Q8.6 10.8 5.75 8.45Q2.95 6.15 2.95 2.6L3 1.7M9.3 -13.8Q9.3 -9.6 10.9 -7.65Q12.55 -5.7 14.95 -5.7Q17.5 -5.7 19.25 -7.7Q21.05 -9.7 21.05 -13.65Q21.05 -17.75 19.35 -19.75Q17.65 -21.75 15.05 -21.75Q12.55 -21.75 10.9 -19.75Q9.3 -17.8 9.3 -13.8" />
</g>
<g id="PathID_438" transform="matrix(0.428601, 0, 0, 0.428601, 140.15, 39.7)" opacity="1">
</g>
<g id="PathID_439" transform="matrix(0.428601, 0, 0, 0.428601, 152.6, 39.7)" opacity="1">
<path style="fill:#0097DC;fill-opacity:1" d="M19.05 -8.45L26.05 -7.25Q24.7 -3.4 21.75 -1.4Q18.85 0.6 14.5 0.6Q7.55 0.6 4.25 -3.9Q1.65 -7.55 1.65 -13.05Q1.65 -19.65 5.1 -23.4Q8.55 -27.15 13.8 -27.15Q19.75 -27.15 23.15 -23.2Q26.6 -19.3 26.45 -11.25L8.85 -11.25Q8.9 -8.1 10.5 -6.35Q12.15 -4.65 14.55 -4.65Q16.2 -4.65 17.3 -5.55Q18.45 -6.45 19.05 -8.45M19.45 -15.55Q19.35 -18.55 17.85 -20.15Q16.35 -21.75 14.2 -21.75Q11.9 -21.75 10.4 -20.05Q8.95 -18.4 8.95 -15.55L19.45 -15.55" />
</g>
<g id="PathID_440" transform="matrix(0.428601, 0, 0, 0.428601, 152.6, 39.7)" opacity="1">
</g>
</svg>
