<?xml version="1.0" encoding="utf-8"?>
<svg version="1.1" id="Layer_1"
xmlns="http://www.w3.org/2000/svg"
xmlns:xlink="http://www.w3.org/1999/xlink"
width="211px" height="63px"
xml:space="preserve">
<g id="PathID_91" transform="matrix(0.520664, 0, 0, 0.520664, 30.85, 43.3)" opacity="1">
<path style="fill:#F29200;fill-opacity:1" d="M35.8 -3.2Q33.9 17.1 19.95 32.1L11.8 33.45L0.2 34.3L-11.65 33.55Q-21.25 32.05 -30.5 28.7L-31.4 27.7Q-34.3 24.05 -35.65 19.7L-36 18.45Q-17.2 25.4 1.55 17.95Q20.8 10.4 28.45 -8.65Q33.65 -21.6 27.65 -34.25Q37.5 -20.2 35.8 -3.2" />
</g>
<g id="PathID_92" transform="matrix(0.520664, 0, 0, 0.520664, 30.85, 43.3)" opacity="1">
</g>
<g id="PathID_93" transform="matrix(0.520664, 0, 0, 0.520664, 45.6, 36.2)" opacity="1">
<path style="fill:#F44691;fill-opacity:1" d="M29.1 -1.3Q27.9 4.35 26.3 9.95Q24.6 15.65 21.95 21Q17.6 29.7 11.55 37.45L10.3 37.95Q6 39.65 1.35 39.55L0.1 39.5Q12.5 23.75 11.25 3.65Q10 -17.05 -5.75 -30.2Q-16.45 -39.15 -30.35 -37.4Q-14 -42.35 1.7 -35.55Q20.4 -27.45 30.35 -9.55Q29.95 -5.35 29.1 -1.3" />
</g>
<g id="PathID_94" transform="matrix(0.520664, 0, 0, 0.520664, 45.6, 36.2)" opacity="1">
</g>
<g id="PathID_95" transform="matrix(0.520664, 0, 0, 0.520664, 38.7, 16.05)" opacity="1">
<path style="fill:#9F1881;fill-opacity:1" d="M29.55 -7.1Q36.5 -0.3 42 7.85L42.1 9.2Q42.35 13.8 40.85 18.2L40.45 19.4Q29.3 2.75 9.75 -2.3Q-10.3 -7.5 -27.7 3.4Q-39.5 10.8 -42.1 24.6Q-41.75 7.45 -30.45 -5.35Q-16.95 -20.6 3.2 -24.55Q7 -22.85 10.55 -20.85L20.4 -14.75Q25.35 -11.3 29.55 -7.1" />
</g>
<g id="PathID_96" transform="matrix(0.520664, 0, 0, 0.520664, 38.7, 16.05)" opacity="1">
</g>
<g id="PathID_97" transform="matrix(0.520664, 0, 0, 0.520664, 20.9, 22.85)" opacity="1">
<path style="fill:#0097DC;fill-opacity:1" d="M26.9 -37.5Q7.6 -32.05 -3.2 -15.05Q-14.35 2.45 -9.35 22.35Q-5.95 35.85 6.35 42.6Q-9.8 37 -18.5 22.25Q-28.9 4.7 -26.4 -15.65L-20.6 -21.5Q-16.25 -25.45 -11.7 -29Q-6.95 -32.65 -1.65 -35.4Q7 -39.85 16.4 -42.55L17.7 -42.25Q22.2 -41.05 25.9 -38.3L26.9 -37.5" />
</g>
<g id="PathID_98" transform="matrix(0.520664, 0, 0, 0.520664, 20.9, 22.85)" opacity="1">
</g>
<g id="PathID_99" transform="matrix(0.520664, 0, 0, 0.520664, 21.6, 36.2)" opacity="1">
<path style="fill:#FED000;fill-opacity:1" d="M-38.9 -23.1L-38.2 -24.25Q-35.65 -28.15 -31.85 -30.85L-30.85 -31.55Q-31.6 -11.5 -18.75 4.05Q-5.6 20.05 14.9 21.45Q28.8 22.35 39 12.75Q28.65 26.4 11.95 30.1Q-7.95 34.55 -26.5 25.9L-30.35 18.6L-34.7 7.8Q-36.65 2.15 -37.65 -3.75Q-39.2 -13.3 -38.9 -23.1" />
</g>
<g id="PathID_100" transform="matrix(0.520664, 0, 0, 0.520664, 21.6, 36.2)" opacity="1">
</g>
<g id="PathID_101" transform="matrix(1.34387, 0, 0, 0.140321, 138.15, 53.35)" opacity="1">
<path style="fill:#0097DC;fill-opacity:1" d="M51.5 -51.5L51.5 51.5L-51.5 51.5L-51.5 -51.5L51.5 -51.5" />
</g>
<g id="PathID_102" transform="matrix(1.34387, 0, 0, 0.140321, 138.15, 53.35)" opacity="1">
</g>
<g id="PathID_103" transform="matrix(0.244066, 0, 0, 0.244066, 73.5, 57.75)" opacity="1">
<path style="fill:#FFFFFF;fill-opacity:1" d="M29.4 -35.85L17.65 -13L17.65 0L11.7 0L11.7 -12.9L0.25 -35.85L7 -35.85L14.05 -20.45Q14.2 -20.2 14.8 -18.4L14.9 -18.4Q15.1 -19.2 15.7 -20.45L23.1 -35.85L29.4 -35.85" />
</g>
<g id="PathID_104" transform="matrix(0.244066, 0, 0, 0.244066, 73.5, 57.75)" opacity="1">
</g>
<g id="PathID_105" transform="matrix(0.244066, 0, 0, 0.244066, 81.15, 57.75)" opacity="1">
<path style="fill:#FFFFFF;fill-opacity:1" d="M15.1 0.6Q9.2 0.6 5.65 -2.95Q2.1 -6.55 2.1 -12.5Q2.1 -18.95 5.8 -22.55Q9.5 -26.2 15.75 -26.2Q21.75 -26.2 25.1 -22.65Q28.45 -19.15 28.45 -12.9Q28.45 -6.75 24.8 -3.05Q21.2 0.6 15.1 0.6M15.4 -21.55Q12 -21.55 10 -19.15Q8.05 -16.8 8.05 -12.65Q8.05 -8.6 10.05 -6.3Q12.05 -4 15.4 -4Q18.8 -4 20.65 -6.25Q22.5 -8.55 22.5 -12.75Q22.5 -16.95 20.65 -19.25Q18.8 -21.55 15.4 -21.55" />
</g>
<g id="PathID_106" transform="matrix(0.244066, 0, 0, 0.244066, 81.15, 57.75)" opacity="1">
</g>
<g id="PathID_107" transform="matrix(0.244066, 0, 0, 0.244066, 90.15, 57.75)" opacity="1">
<path style="fill:#FFFFFF;fill-opacity:1" d="M26.1 0L20.3 0L20.3 -4.05L20.2 -4.05Q17.65 0.6 12.35 0.6Q3.25 0.6 3.25 -10.3L3.25 -25.6L9.05 -25.6L9.05 -10.9Q9.05 -4 14.4 -4Q16.95 -4 18.6 -5.9Q20.3 -7.8 20.3 -10.85L20.3 -25.6L26.1 -25.6L26.1 0" />
</g>
<g id="PathID_108" transform="matrix(0.244066, 0, 0, 0.244066, 90.15, 57.75)" opacity="1">
</g>
<g id="PathID_109" transform="matrix(0.244066, 0, 0, 0.244066, 99, 57.75)" opacity="1">
<path style="fill:#FFFFFF;fill-opacity:1" d="M17.25 -0.25Q15.55 0.6 12.8 0.6Q5.35 0.6 5.35 -6.55L5.35 -21.05L1.05 -21.05L1.05 -25.6L5.35 -25.6L5.35 -31.5L11.15 -33.15L11.15 -25.6L17.25 -25.6L17.25 -21.05L11.15 -21.05L11.15 -8.25Q11.15 -5.95 11.95 -4.95Q12.8 -4 14.7 -4Q16.2 -4 17.25 -4.85L17.25 -0.25" />
</g>
<g id="PathID_110" transform="matrix(0.244066, 0, 0, 0.244066, 99, 57.75)" opacity="1">
</g>
<g id="PathID_111" transform="matrix(0.244066, 0, 0, 0.244066, 105.05, 57.75)" opacity="1">
<path style="fill:#FFFFFF;fill-opacity:1" d="M26.5 0L20.7 0L20.7 -14Q20.7 -21.6 15.65 -21.6Q13.1 -21.6 11.35 -19.4Q9.6 -17.2 9.6 -13.75L9.6 0L3.75 0L3.75 -37.9L9.6 -37.9L9.6 -21.35L9.7 -21.35Q12.6 -26.2 18 -26.2Q26.5 -26.2 26.5 -15.75L26.5 0" />
</g>
<g id="PathID_112" transform="matrix(0.244066, 0, 0, 0.244066, 105.05, 57.75)" opacity="1">
</g>
<g id="PathID_113" transform="matrix(0.244066, 0, 0, 0.244066, 118.85, 57.75)" opacity="1">
<path style="fill:#FFFFFF;fill-opacity:1" d="M23.75 -30.8L10.35 -30.8L10.35 -20L22.7 -20L22.7 -15L10.35 -15L10.35 0L4.4 0L4.4 -35.85L23.75 -35.85L23.75 -30.8" />
</g>
<g id="PathID_114" transform="matrix(0.244066, 0, 0, 0.244066, 118.85, 57.75)" opacity="1">
</g>
<g id="PathID_115" transform="matrix(0.244066, 0, 0, 0.244066, 126.7, 57.75)" opacity="1">
<path style="fill:#FFFFFF;fill-opacity:1" d="M15.1 0.6Q9.2 0.6 5.65 -2.95Q2.1 -6.55 2.1 -12.5Q2.1 -18.95 5.8 -22.55Q9.5 -26.2 15.75 -26.2Q21.75 -26.2 25.1 -22.65Q28.45 -19.15 28.45 -12.9Q28.45 -6.75 24.8 -3.05Q21.2 0.6 15.1 0.6M15.4 -21.55Q12 -21.55 10 -19.15Q8.05 -16.8 8.05 -12.65Q8.05 -8.6 10.05 -6.3Q12.05 -4 15.4 -4Q18.8 -4 20.65 -6.25Q22.5 -8.55 22.5 -12.75Q22.5 -16.95 20.65 -19.25Q18.8 -21.55 15.4 -21.55" />
</g>
<g id="PathID_116" transform="matrix(0.244066, 0, 0, 0.244066, 126.7, 57.75)" opacity="1">
</g>
<g id="PathID_117" transform="matrix(0.244066, 0, 0, 0.244066, 135.7, 57.75)" opacity="1">
<path style="fill:#FFFFFF;fill-opacity:1" d="M18.6 -20.05Q17.55 -20.9 15.6 -20.9Q13 -20.9 11.25 -18.55Q9.55 -16.25 9.55 -12.25L9.55 0L3.75 0L3.75 -25.6L9.55 -25.6L9.55 -20.3L9.65 -20.3Q10.5 -23 12.25 -24.5Q14.05 -26.05 16.2 -26.05Q17.8 -26.05 18.6 -25.55L18.6 -20.05" />
</g>
<g id="PathID_118" transform="matrix(0.244066, 0, 0, 0.244066, 135.7, 57.75)" opacity="1">
</g>
<g id="PathID_119" transform="matrix(0.244066, 0, 0, 0.244066, 146.85, 57.75)" opacity="1">
<path style="fill:#FFFFFF;fill-opacity:1" d="M10.35 -13L10.35 0L4.4 0L4.4 -35.85L15.3 -35.85Q21.45 -35.85 24.85 -32.95Q28.25 -30.1 28.25 -24.85Q28.25 -19.65 24.7 -16.3Q21.15 -13 15.1 -13L10.35 -13M10.35 -30.95L10.35 -17.85L14.2 -17.85Q18 -17.85 20 -19.6Q22 -21.4 22 -24.6Q22 -30.95 14.65 -30.95L10.35 -30.95" />
</g>
<g id="PathID_120" transform="matrix(0.244066, 0, 0, 0.244066, 146.85, 57.75)" opacity="1">
</g>
<g id="PathID_121" transform="matrix(0.244066, 0, 0, 0.244066, 155.35, 57.75)" opacity="1">
<path style="fill:#FFFFFF;fill-opacity:1" d="M23.4 0L17.8 0L17.8 -4L17.7 -4Q15.05 0.6 9.9 0.6Q6.15 0.6 4 -1.45Q1.85 -3.5 1.85 -6.85Q1.85 -14.1 10.2 -15.3L17.8 -16.4Q17.8 -21.85 12.6 -21.85Q8.05 -21.85 4.35 -18.7L4.35 -23.8Q8.4 -26.2 13.7 -26.2Q23.4 -26.2 23.4 -16.65L23.4 0M17.8 -12.55L12.45 -11.8Q9.95 -11.5 8.65 -10.6Q7.4 -9.7 7.4 -7.5Q7.4 -5.85 8.55 -4.8Q9.75 -3.8 11.7 -3.8Q14.35 -3.8 16.05 -5.65Q17.8 -7.5 17.8 -10.35L17.8 -12.55" />
</g>
<g id="PathID_122" transform="matrix(0.244066, 0, 0, 0.244066, 155.35, 57.75)" opacity="1">
</g>
<g id="PathID_123" transform="matrix(0.244066, 0, 0, 0.244066, 163.4, 57.75)" opacity="1">
<path style="fill:#FFFFFF;fill-opacity:1" d="M27 0L19.65 0L9.7 -12.3L9.6 -12.3L9.6 0L3.75 0L3.75 -37.9L9.6 -37.9L9.6 -13.85L9.7 -13.85L19.1 -25.6L26.05 -25.6L15.5 -13.25L27 0" />
</g>
<g id="PathID_124" transform="matrix(0.244066, 0, 0, 0.244066, 163.4, 57.75)" opacity="1">
</g>
<g id="PathID_125" transform="matrix(0.244066, 0, 0, 0.244066, 171.55, 57.75)" opacity="1">
<path style="fill:#FFFFFF;fill-opacity:1" d="M6.7 -30.95Q5.25 -30.95 4.25 -31.85Q3.25 -32.8 3.25 -34.25Q3.25 -35.65 4.25 -36.6Q5.25 -37.55 6.7 -37.55Q8.15 -37.55 9.15 -36.6Q10.2 -35.65 10.2 -34.25Q10.2 -32.9 9.15 -31.9Q8.15 -30.95 6.7 -30.95M9.55 0L3.75 0L3.75 -25.6L9.55 -25.6L9.55 0" />
</g>
<g id="PathID_126" transform="matrix(0.244066, 0, 0, 0.244066, 171.55, 57.75)" opacity="1">
</g>
<g id="PathID_127" transform="matrix(0.244066, 0, 0, 0.244066, 176.35, 57.75)" opacity="1">
<path style="fill:#FFFFFF;fill-opacity:1" d="M2.15 -0.8L2.15 -6.15Q5.4 -3.7 9.35 -3.7Q14.6 -3.7 14.6 -6.8Q14.6 -7.65 14.15 -8.25Q13.7 -8.9 12.9 -9.35Q12.15 -9.85 11.1 -10.2L8.8 -11.05Q7.25 -11.7 5.95 -12.4Q4.7 -13.1 3.85 -13.95Q3.05 -14.85 2.6 -15.95Q2.2 -17.1 2.2 -18.6Q2.2 -20.45 3.05 -21.85Q3.95 -23.3 5.4 -24.25Q6.9 -25.2 8.75 -25.7Q10.65 -26.2 12.65 -26.2Q16.2 -26.2 19 -25.1L19 -20.05Q16.3 -21.9 12.8 -21.9Q11.7 -21.9 10.8 -21.65Q9.9 -21.45 9.25 -21.05Q8.65 -20.65 8.3 -20.05Q7.95 -19.5 7.95 -18.85Q7.95 -18 8.3 -17.4Q8.65 -16.85 9.35 -16.4Q10.05 -16 11 -15.6L13.2 -14.85Q14.85 -14.15 16.15 -13.45Q17.5 -12.75 18.4 -11.85Q19.35 -11 19.85 -9.8Q20.35 -8.65 20.35 -7.05Q20.35 -5.1 19.45 -3.65Q18.55 -2.2 17.05 -1.25Q15.55 -0.3 13.55 0.15Q11.6 0.6 9.45 0.6Q5.25 0.6 2.15 -0.8" />
</g>
<g id="PathID_128" transform="matrix(0.244066, 0, 0, 0.244066, 176.35, 57.75)" opacity="1">
</g>
<g id="PathID_129" transform="matrix(0.244066, 0, 0, 0.244066, 183.3, 57.75)" opacity="1">
<path style="fill:#FFFFFF;fill-opacity:1" d="M17.25 -0.25Q15.55 0.6 12.8 0.6Q5.35 0.6 5.35 -6.55L5.35 -21.05L1.05 -21.05L1.05 -25.6L5.35 -25.6L5.35 -31.5L11.15 -33.15L11.15 -25.6L17.25 -25.6L17.25 -21.05L11.15 -21.05L11.15 -8.25Q11.15 -5.95 11.95 -4.95Q12.8 -4 14.7 -4Q16.2 -4 17.25 -4.85L17.25 -0.25" />
</g>
<g id="PathID_130" transform="matrix(0.244066, 0, 0, 0.244066, 183.3, 57.75)" opacity="1">
</g>
<g id="PathID_131" transform="matrix(0.244066, 0, 0, 0.244066, 189.35, 57.75)" opacity="1">
<path style="fill:#FFFFFF;fill-opacity:1" d="M23.4 0L17.8 0L17.8 -4L17.7 -4Q15.05 0.6 9.9 0.6Q6.15 0.6 4 -1.45Q1.85 -3.5 1.85 -6.85Q1.85 -14.1 10.2 -15.3L17.8 -16.4Q17.8 -21.85 12.6 -21.85Q8.05 -21.85 4.35 -18.7L4.35 -23.8Q8.4 -26.2 13.7 -26.2Q23.4 -26.2 23.4 -16.65L23.4 0M17.8 -12.55L12.45 -11.8Q9.95 -11.5 8.65 -10.6Q7.4 -9.7 7.4 -7.5Q7.4 -5.85 8.55 -4.8Q9.75 -3.8 11.7 -3.8Q14.35 -3.8 16.05 -5.65Q17.8 -7.5 17.8 -10.35L17.8 -12.55" />
</g>
<g id="PathID_132" transform="matrix(0.244066, 0, 0, 0.244066, 189.35, 57.75)" opacity="1">
</g>
<g id="PathID_133" transform="matrix(0.244066, 0, 0, 0.244066, 197.45, 57.75)" opacity="1">
<path style="fill:#FFFFFF;fill-opacity:1" d="M26.55 0L20.75 0L20.75 -14.4Q20.75 -21.6 15.7 -21.6Q13.05 -21.6 11.3 -19.6Q9.6 -17.6 9.6 -14.6L9.6 0L3.75 0L3.75 -25.6L9.6 -25.6L9.6 -21.35L9.7 -21.35Q12.55 -26.2 18 -26.2Q22.15 -26.2 24.35 -23.45Q26.55 -20.75 26.55 -15.65L26.55 0" />
</g>
<g id="PathID_134" transform="matrix(0.244066, 0, 0, 0.244066, 197.45, 57.75)" opacity="1">
</g>
<g id="PathID_135" transform="matrix(0.428601, 0, 0, 0.428601, 67.35, 18.5)" opacity="1">
<path style="fill:#0097DC;fill-opacity:1" d="M13.35 0L13.35 -15.4L-0.1 -36.65L8.65 -36.65L17.2 -22.1L25.65 -36.65L34.15 -36.65L20.75 -15.35L20.75 0L13.35 0" />
</g>
<g id="PathID_136" transform="matrix(0.428601, 0, 0, 0.428601, 67.35, 18.5)" opacity="1">
</g>
<g id="PathID_137" transform="matrix(0.428601, 0, 0, 0.428601, 78.75, 18.5)" opacity="1">
<path style="fill:#0097DC;fill-opacity:1" d="M2 -13.65Q2 -17.15 3.7 -20.4Q5.45 -23.7 8.6 -25.4Q11.75 -27.15 15.7 -27.15Q21.7 -27.15 25.55 -23.2Q29.45 -19.3 29.45 -13.35Q29.45 -7.3 25.55 -3.35Q21.65 0.6 15.75 0.6Q12.05 0.6 8.75 -1.05Q5.45 -2.7 3.7 -5.85Q2 -9.05 2 -13.65M9.2 -13.25Q9.2 -9.3 11.05 -7.2Q12.95 -5.15 15.7 -5.15Q18.45 -5.15 20.3 -7.2Q22.2 -9.3 22.2 -13.3Q22.2 -17.2 20.3 -19.3Q18.45 -21.4 15.7 -21.4Q12.95 -21.4 11.05 -19.3Q9.2 -17.2 9.2 -13.25" />
</g>
<g id="PathID_138" transform="matrix(0.428601, 0, 0, 0.428601, 78.75, 18.5)" opacity="1">
</g>
<g id="PathID_139" transform="matrix(0.428601, 0, 0, 0.428601, 90.7, 18.5)" opacity="1">
<path style="fill:#0097DC;fill-opacity:1" d="M21.15 0L21.15 -3.95Q19.7 -1.85 17.3 -0.6Q14.95 0.6 12.35 0.6Q9.65 0.6 7.5 -0.55Q5.4 -1.75 4.45 -3.85Q3.55 -6 3.55 -9.75L3.55 -26.55L10.6 -26.55L10.6 -14.35Q10.6 -8.75 10.95 -7.5Q11.35 -6.25 12.35 -5.5Q13.4 -4.8 14.95 -4.8Q16.75 -4.8 18.15 -5.75Q19.6 -6.75 20.1 -8.2Q20.65 -9.65 20.65 -15.35L20.65 -26.55L27.7 -26.55L27.7 0L21.15 0" />
</g>
<g id="PathID_140" transform="matrix(0.428601, 0, 0, 0.428601, 90.7, 18.5)" opacity="1">
</g>
<g id="PathID_141" transform="matrix(0.428601, 0, 0, 0.428601, 102.7, 18.5)" opacity="1">
<path style="fill:#0097DC;fill-opacity:1" d="M27.8 0L20.75 0L20.75 -13.5Q20.75 -17.8 20.3 -19.05Q19.85 -20.35 18.8 -21.05Q17.8 -21.75 16.4 -21.75Q14.6 -21.75 13.15 -20.75Q11.7 -19.75 11.15 -18.1Q10.65 -16.45 10.65 -12L10.65 0L3.6 0L3.6 -26.55L10.15 -26.55L10.15 -22.65Q13.6 -27.15 18.85 -27.15Q21.2 -27.15 23.1 -26.3Q25.05 -25.45 26 -24.15Q27 -22.85 27.4 -21.2Q27.8 -19.55 27.8 -16.5L27.8 0" />
</g>
<g id="PathID_142" transform="matrix(0.428601, 0, 0, 0.428601, 102.7, 18.5)" opacity="1">
</g>
<g id="PathID_143" transform="matrix(0.428601, 0, 0, 0.428601, 114.7, 18.5)" opacity="1">
<path style="fill:#0097DC;fill-opacity:1" d="M3 1.7L11.05 2.7Q11.2 4.15 11.95 4.65Q12.95 5.4 15.1 5.4Q17.85 5.4 19.2 4.6Q20.15 4.05 20.6 2.8Q20.95 1.95 20.95 -0.45L20.95 -4.35Q17.8 0 13 0Q7.65 0 4.5 -4.5Q2.1 -8.1 2.1 -13.4Q2.1 -20.1 5.3 -23.6Q8.5 -27.15 13.25 -27.15Q18.2 -27.15 21.4 -22.8L21.4 -26.55L28 -26.55L28 -2.7Q28 2 27.2 4.3Q26.4 6.65 25 7.95Q23.6 9.3 21.25 10.05Q18.95 10.8 15.35 10.8Q8.6 10.8 5.75 8.45Q2.95 6.15 2.95 2.6L3 1.7M9.3 -13.8Q9.3 -9.6 10.9 -7.65Q12.55 -5.7 14.95 -5.7Q17.5 -5.7 19.25 -7.7Q21.05 -9.7 21.05 -13.65Q21.05 -17.75 19.35 -19.75Q17.65 -21.75 15.05 -21.75Q12.55 -21.75 10.9 -19.75Q9.3 -17.8 9.3 -13.8" />
</g>
<g id="PathID_144" transform="matrix(0.428601, 0, 0, 0.428601, 114.7, 18.5)" opacity="1">
</g>
<g id="PathID_145" transform="matrix(0.428601, 0, 0, 0.428601, 129.7, 19.05)" opacity="1">
<path style="fill:#0097DC;fill-opacity:1" d="M3.75 0L3.75 -35.75L19 -35.75Q29.2 -35.75 29.2 -27.15Q29.2 -17.5 14.95 -15.2L14 -19.1Q24.25 -20.7 24.25 -26.95Q24.25 -31.9 18.55 -31.9L8.35 -31.9L8.35 0L3.75 0" />
</g>
<g id="PathID_146" transform="matrix(0.428601, 0, 0, 0.428601, 129.7, 19.05)" opacity="1">
</g>
<g id="PathID_147" transform="matrix(0.428601, 0, 0, 0.428601, 142.1, 19.05)" opacity="1">
<path style="fill:#0097DC;fill-opacity:1" d="M2.5 -8.15Q2.5 -16.25 13.15 -16.25Q17.05 -16.25 20 -15.75L20 -18.2Q20 -22.5 12.9 -22.5Q8.85 -22.5 4.6 -21.25L4.6 -25Q8.85 -26.25 12.9 -26.25Q24.6 -26.25 24.6 -17.85L24.6 0L22.25 0L20.4 -1.85Q17 0 12.35 0Q2.5 0 2.5 -8.15M13.15 -12.5Q7.1 -12.5 7.1 -8.25Q7.1 -3.75 12.35 -3.75Q17.15 -3.75 20 -5.8L20 -12Q17.25 -12.5 13.15 -12.5" />
</g>
<g id="PathID_148" transform="matrix(0.428601, 0, 0, 0.428601, 142.1, 19.05)" opacity="1">
</g>
<g id="PathID_149" transform="matrix(0.428601, 0, 0, 0.428601, 153.3, 19.05)" opacity="1">
<path style="fill:#0097DC;fill-opacity:1" d="M3.75 0L3.75 -35.75L8.35 -35.75L8.35 -24.2Q12.45 -26.25 17.45 -26.25Q27 -26.25 27 -18.65Q27 -13.15 19.5 -11.05L27.9 0L22.05 0L13.7 -11.1L13.7 -13.2Q22.35 -13.95 22.35 -18.7Q22.35 -22.5 16.85 -22.5Q12.55 -22.5 8.35 -20.15L8.35 0L3.75 0" />
</g>
<g id="PathID_150" transform="matrix(0.428601, 0, 0, 0.428601, 153.3, 19.05)" opacity="1">
</g>
<g id="PathID_151" transform="matrix(0.428601, 0, 0, 0.428601, 165.05, 19.05)" opacity="1">
<path style="fill:#0097DC;fill-opacity:1" d="M8.35 -35.75L8.35 -32L3.75 -32L3.75 -35.75L8.35 -35.75M8.35 -26.25L8.35 0L3.75 0L3.75 -26.25L8.35 -26.25" />
</g>
<g id="PathID_152" transform="matrix(0.428601, 0, 0, 0.428601, 165.05, 19.05)" opacity="1">
</g>
<g id="PathID_153" transform="matrix(0.428601, 0, 0, 0.428601, 169.3, 19.05)" opacity="1">
<path style="fill:#0097DC;fill-opacity:1" d="M3.75 -1.25L3.75 -5.25Q8.1 -3.75 12.85 -3.75Q19.1 -3.75 19.1 -7.5Q19.1 -11 15 -11L10.75 -11Q2.5 -11 2.5 -18.75Q2.5 -26.25 13.4 -26.25Q18.1 -26.25 22.5 -25L22.5 -21Q18.1 -22.5 13.4 -22.5Q6.85 -22.5 6.85 -18.75Q6.85 -15.25 10.75 -15.25L15 -15.25Q23.75 -15.25 23.75 -7.5Q23.75 0 12.85 0Q8.1 0 3.75 -1.25" />
</g>
<g id="PathID_154" transform="matrix(0.428601, 0, 0, 0.428601, 169.3, 19.05)" opacity="1">
</g>
<g id="PathID_155" transform="matrix(0.428601, 0, 0, 0.428601, 179.6, 19.05)" opacity="1">
<path style="fill:#0097DC;fill-opacity:1" d="M3.75 -30.5L6.65 -30.5L7.65 -26.25L13.75 -26.25L13.75 -22.5L8.35 -22.5L8.35 -7.4Q8.35 -3.75 11.55 -3.75L13.75 -3.75L13.75 0L10.35 0Q3.75 0 3.75 -7.05L3.75 -30.5" />
</g>
<g id="PathID_156" transform="matrix(0.428601, 0, 0, 0.428601, 179.6, 19.05)" opacity="1">
</g>
<g id="PathID_157" transform="matrix(0.428601, 0, 0, 0.428601, 185.6, 19.05)" opacity="1">
<path style="fill:#0097DC;fill-opacity:1" d="M2.5 -8.15Q2.5 -16.25 13.15 -16.25Q17.05 -16.25 20 -15.75L20 -18.2Q20 -22.5 12.9 -22.5Q8.85 -22.5 4.6 -21.25L4.6 -25Q8.85 -26.25 12.9 -26.25Q24.6 -26.25 24.6 -17.85L24.6 0L22.25 0L20.4 -1.85Q17 0 12.35 0Q2.5 0 2.5 -8.15M13.15 -12.5Q7.1 -12.5 7.1 -8.25Q7.1 -3.75 12.35 -3.75Q17.15 -3.75 20 -5.8L20 -12Q17.25 -12.5 13.15 -12.5" />
</g>
<g id="PathID_158" transform="matrix(0.428601, 0, 0, 0.428601, 185.6, 19.05)" opacity="1">
</g>
<g id="PathID_159" transform="matrix(0.428601, 0, 0, 0.428601, 196.85, 19.05)" opacity="1">
<path style="fill:#0097DC;fill-opacity:1" d="M3.75 0L3.75 -26.25L6.85 -26.25L7.7 -22.9Q12.45 -26.25 17.3 -26.25Q26.35 -26.25 26.35 -16.45L26.35 0L21.75 0L21.75 -16.55Q21.75 -22.4 15.9 -22.4Q11.95 -22.4 8.35 -19.05L8.35 0L3.75 0" />
</g>
<g id="PathID_160" transform="matrix(0.428601, 0, 0, 0.428601, 196.85, 19.05)" opacity="1">
</g>
<g id="PathID_161" transform="matrix(0.428601, 0, 0, 0.428601, 67.4, 39.7)" opacity="1">
<path style="fill:#0097DC;fill-opacity:1" d="M27.15 -13.5L34.35 -11.25Q32.7 -5.2 28.85 -2.25Q25 0.65 19.1 0.65Q11.8 0.65 7.1 -4.3Q2.45 -9.3 2.45 -17.95Q2.45 -27.15 7.15 -32.2Q11.85 -37.3 19.55 -37.3Q26.3 -37.3 30.5 -33.3Q33 -30.95 34.25 -26.55L26.9 -24.8Q26.25 -27.65 24.15 -29.3Q22.1 -30.95 19.2 -30.95Q15.15 -30.95 12.6 -28Q10.1 -25.1 10.1 -18.55Q10.1 -11.6 12.55 -8.65Q15.05 -5.7 19.05 -5.7Q21.95 -5.7 24.05 -7.55Q26.2 -9.45 27.15 -13.5" />
</g>
<g id="PathID_162" transform="matrix(0.428601, 0, 0, 0.428601, 67.4, 39.7)" opacity="1">
</g>
<g id="PathID_163" transform="matrix(0.428601, 0, 0, 0.428601, 82.35, 39.7)" opacity="1">
<path style="fill:#0097DC;fill-opacity:1" d="M10.65 -36.65L10.65 -23.1Q14.05 -27.15 18.75 -27.15Q21.2 -27.15 23.15 -26.25Q25.1 -25.35 26.05 -23.95Q27.05 -22.55 27.4 -20.85Q27.8 -19.15 27.8 -15.55L27.8 0L20.75 0L20.75 -14Q20.75 -18.15 20.35 -19.25Q19.95 -20.4 18.9 -21.05Q17.9 -21.75 16.4 -21.75Q14.65 -21.75 13.25 -20.9Q11.9 -20.05 11.25 -18.3Q10.65 -16.6 10.65 -13.25L10.65 0L3.6 0L3.6 -36.65L10.65 -36.65" />
</g>
<g id="PathID_164" transform="matrix(0.428601, 0, 0, 0.428601, 82.35, 39.7)" opacity="1">
</g>
<g id="PathID_165" transform="matrix(0.428601, 0, 0, 0.428601, 94.8, 39.7)" opacity="1">
<path style="fill:#0097DC;fill-opacity:1" d="M8.95 -18.35L2.6 -19.5Q3.65 -23.4 6.25 -25.25Q8.9 -27.15 14.05 -27.15Q18.75 -27.15 21.05 -26Q23.35 -24.9 24.3 -23.2Q25.25 -21.5 25.25 -16.9L25.15 -8.7Q25.15 -5.2 25.45 -3.55Q25.8 -1.9 26.75 0L19.8 0Q19.5 -0.7 19.1 -2.05L18.85 -2.9Q17.05 -1.15 15 -0.25Q12.95 0.6 10.65 0.6Q6.55 0.6 4.2 -1.6Q1.85 -3.8 1.85 -7.2Q1.85 -9.45 2.9 -11.2Q3.95 -12.95 5.9 -13.85Q7.85 -14.8 11.45 -15.5Q16.4 -16.45 18.3 -17.25L18.3 -17.95Q18.3 -20 17.3 -20.85Q16.3 -21.75 13.55 -21.75Q11.65 -21.75 10.6 -20.95Q9.55 -20.2 8.95 -18.35M18.3 -12.65Q16.95 -12.2 14.05 -11.55Q11.15 -10.95 10.25 -10.35Q8.9 -9.4 8.9 -7.9Q8.9 -6.45 9.95 -5.4Q11.05 -4.35 12.75 -4.35Q14.65 -4.35 16.35 -5.55Q17.6 -6.5 18 -7.85Q18.3 -8.75 18.3 -11.25L18.3 -12.65" />
</g>
<g id="PathID_166" transform="matrix(0.428601, 0, 0, 0.428601, 94.8, 39.7)" opacity="1">
</g>
<g id="PathID_167" transform="matrix(0.428601, 0, 0, 0.428601, 106.05, 39.7)" opacity="1">
<path style="fill:#0097DC;fill-opacity:1" d="M3.7 0L3.7 -36.65L10.75 -36.65L10.75 0L3.7 0" />
</g>
<g id="PathID_168" transform="matrix(0.428601, 0, 0, 0.428601, 106.05, 39.7)" opacity="1">
</g>
<g id="PathID_169" transform="matrix(0.428601, 0, 0, 0.428601, 111.25, 39.7)" opacity="1">
<path style="fill:#0097DC;fill-opacity:1" d="M3.7 0L3.7 -36.65L10.75 -36.65L10.75 0L3.7 0" />
</g>
<g id="PathID_170" transform="matrix(0.428601, 0, 0, 0.428601, 111.25, 39.7)" opacity="1">
</g>
<g id="PathID_171" transform="matrix(0.428601, 0, 0, 0.428601, 116.4, 39.7)" opacity="1">
<path style="fill:#0097DC;fill-opacity:1" d="M19.05 -8.45L26.05 -7.25Q24.7 -3.4 21.75 -1.4Q18.85 0.6 14.5 0.6Q7.55 0.6 4.25 -3.9Q1.65 -7.55 1.65 -13.05Q1.65 -19.65 5.1 -23.4Q8.55 -27.15 13.8 -27.15Q19.75 -27.15 23.15 -23.2Q26.6 -19.3 26.45 -11.25L8.85 -11.25Q8.9 -8.1 10.5 -6.35Q12.15 -4.65 14.55 -4.65Q16.2 -4.65 17.3 -5.55Q18.45 -6.45 19.05 -8.45M19.45 -15.55Q19.35 -18.55 17.85 -20.15Q16.35 -21.75 14.2 -21.75Q11.9 -21.75 10.4 -20.05Q8.95 -18.4 8.95 -15.55L19.45 -15.55" />
</g>
<g id="PathID_172" transform="matrix(0.428601, 0, 0, 0.428601, 116.4, 39.7)" opacity="1">
</g>
<g id="PathID_173" transform="matrix(0.428601, 0, 0, 0.428601, 127.65, 39.7)" opacity="1">
<path style="fill:#0097DC;fill-opacity:1" d="M27.8 0L20.75 0L20.75 -13.5Q20.75 -17.8 20.3 -19.05Q19.85 -20.35 18.8 -21.05Q17.8 -21.75 16.4 -21.75Q14.6 -21.75 13.15 -20.75Q11.7 -19.75 11.15 -18.1Q10.65 -16.45 10.65 -12L10.65 0L3.6 0L3.6 -26.55L10.15 -26.55L10.15 -22.65Q13.6 -27.15 18.85 -27.15Q21.2 -27.15 23.1 -26.3Q25.05 -25.45 26 -24.15Q27 -22.85 27.4 -21.2Q27.8 -19.55 27.8 -16.5L27.8 0" />
</g>
<g id="PathID_174" transform="matrix(0.428601, 0, 0, 0.428601, 127.65, 39.7)" opacity="1">
</g>
<g id="PathID_175" transform="matrix(0.428601, 0, 0, 0.428601, 140.15, 39.7)" opacity="1">
<path style="fill:#0097DC;fill-opacity:1" d="M3 1.7L11.05 2.7Q11.2 4.15 11.95 4.65Q12.95 5.4 15.1 5.4Q17.85 5.4 19.2 4.6Q20.15 4.05 20.6 2.8Q20.95 1.95 20.95 -0.45L20.95 -4.35Q17.8 0 13 0Q7.65 0 4.5 -4.5Q2.1 -8.1 2.1 -13.4Q2.1 -20.1 5.3 -23.6Q8.5 -27.15 13.25 -27.15Q18.2 -27.15 21.4 -22.8L21.4 -26.55L28 -26.55L28 -2.7Q28 2 27.2 4.3Q26.4 6.65 25 7.95Q23.6 9.3 21.25 10.05Q18.95 10.8 15.35 10.8Q8.6 10.8 5.75 8.45Q2.95 6.15 2.95 2.6L3 1.7M9.3 -13.8Q9.3 -9.6 10.9 -7.65Q12.55 -5.7 14.95 -5.7Q17.5 -5.7 19.25 -7.7Q21.05 -9.7 21.05 -13.65Q21.05 -17.75 19.35 -19.75Q17.65 -21.75 15.05 -21.75Q12.55 -21.75 10.9 -19.75Q9.3 -17.8 9.3 -13.8" />
</g>
<g id="PathID_176" transform="matrix(0.428601, 0, 0, 0.428601, 140.15, 39.7)" opacity="1">
</g>
<g id="PathID_177" transform="matrix(0.428601, 0, 0, 0.428601, 152.6, 39.7)" opacity="1">
<path style="fill:#0097DC;fill-opacity:1" d="M19.05 -8.45L26.05 -7.25Q24.7 -3.4 21.75 -1.4Q18.85 0.6 14.5 0.6Q7.55 0.6 4.25 -3.9Q1.65 -7.55 1.65 -13.05Q1.65 -19.65 5.1 -23.4Q8.55 -27.15 13.8 -27.15Q19.75 -27.15 23.15 -23.2Q26.6 -19.3 26.45 -11.25L8.85 -11.25Q8.9 -8.1 10.5 -6.35Q12.15 -4.65 14.55 -4.65Q16.2 -4.65 17.3 -5.55Q18.45 -6.45 19.05 -8.45M19.45 -15.55Q19.35 -18.55 17.85 -20.15Q16.35 -21.75 14.2 -21.75Q11.9 -21.75 10.4 -20.05Q8.95 -18.4 8.95 -15.55L19.45 -15.55" />
</g>
<g id="PathID_178" transform="matrix(0.428601, 0, 0, 0.428601, 152.6, 39.7)" opacity="1">
</g>
<g id="PathID_179" transform="matrix(0.172345, 0, 0, 0.172345, 18.65, 18.65)" opacity="1">
<path style="fill:#0097DC;fill-opacity:1" d="M130.5 24.65L132.25 26.8Q135.3 30.1 137.5 33.5L143.6 45L145.7 49.95L146.2 51.45L147.55 56.25L149.05 62.4L150 74.9L150 75.45L149.8 81.6L149.05 87.65Q148.4 91.75 147.2 95.8L146.3 98.65L141.5 109.9L140.95 110.95L137.45 116.8L135.7 119.3Q133.15 122.8 129.6 126.5L129 127.2L128.45 127.65L128.05 128.05Q123.45 132.65 119.85 135.1L116.85 137.3L116.15 137.85L115.2 138.35L112.2 140.3L109.5 141.5L108.6 142.15L104.3 144.25L101.75 145.1L100.95 145.45L95.35 147.3L92.35 148.1L89.1 148.8L81.65 149.85L80.6 150.05L77.85 150.05Q75.4 150.3 71.45 150.05L65.4 149.45Q60.7 149.1 57.45 147.95L51.65 146.35L50.55 146.1L48.95 145.45L42.9 143L42.8 143Q40.7 142.05 39.3 141.15L26.45 132.4L23.1 129.05L19.5 125.35L19.15 125L15.8 121.15L14.95 120L14.3 119.3L13.7 118.4L13.7 118.25L11.5 114.95L11.25 114.7L9.4 111.35Q7.05 107.05 4.2 100.4L1.25 88.5L0 76.4L0.1 75.05L0 74.55L0.15 73.15L0.25 69.1Q0.9 62.4 2.1 57.25L2.55 56Q3.15 53.2 3.95 51.15L5.35 47.55L5.8 46L6.15 45.3Q7.65 41.7 8.5 40.2L11 36.4L11.25 35.9Q11.7 34.4 15.05 30.25L15.45 29.7Q19.35 24.45 21 22.85L29.15 15.55L30.65 14.6L33.75 12.5L34.6 12.05Q38.5 9.6 41.65 7.95L46.85 5.45L58.7 1.85L63 0.9L74.85 0L76.6 0L77.7 0.1L86.1 0.9L90.05 1.5L92 2.2L95.5 3.1L99.75 4.25L106.5 7.05L106.95 7.3L107.05 7.3Q112.55 10.05 114.65 11.6L115.05 11.9L118.35 13.75L120.3 15.5L123.45 17.95L129.6 23.85L130.5 24.65M65.1 41.4L64.5 40.2L64.6 39.95Q63.5 39.45 63.9 38.05L63 37.1L66.35 37.7Q67.5 37.45 67.5 35.35Q65.4 32.9 63.9 32.25L63.9 31.65L62.65 31.65L62.65 31.05L63 30.8Q62.65 29.55 62.05 29.55Q61.4 29.55 58.1 31.4L58.1 30.8L57.45 30.8L54.75 33.5L55.35 33.5Q54.5 35.35 51.15 38.35Q48.05 41.4 47.2 43.5L46.85 43.25L44.75 47.2Q45.95 48.1 48.95 48.35L48.95 48.95Q48.35 49.3 46.2 54.15Q45 53.9 43.25 56Q42 54.75 41.65 50.8Q43.5 49.3 43.5 48.35Q42.6 48.7 41.05 47.75L41.65 47.5L41.05 47.2L40.15 48.1L40.15 47.5L38.65 47.75L38.05 49.6Q37.45 49.95 36.2 52.05L36.8 52.65L35.85 55.1L38.05 54.5L38.65 52.65L40.15 52.3Q40.15 53.55 38.3 55.4L38.95 55.65L38.3 56.6L38.05 57.25L41.4 56.6L41.4 57.85L39.3 59.1L38.05 58.75L38.3 62.4L38.95 62.05Q39.55 63.9 38.05 64.55L34.1 64.8Q33.75 65.4 34.1 67.5Q33.75 67.85 33.75 70.35L34.35 70.35L35.3 71.2Q36.45 71.2 39.3 70Q39.55 68.75 39.3 68.15Q40.75 65.75 41.65 64.8Q43.5 65.15 44.1 64.8L44.4 67.5L44.1 67.85L43.75 69.35Q44.75 68.75 45.95 69.1Q47.45 69.35 48.05 69.1L48.7 70.35L48.05 70.6L46.2 70.95L47.45 71.8Q48.05 70.95 49.3 70.35L48.95 69.1L49.3 68.75L49.9 69.1L48.95 67.85L48.95 67L48.35 67.25L47.7 66.65L48.7 66.65L48.95 65.4Q50.55 66.35 51.15 69.1Q52 71.8 52.65 72.7Q52.9 71.45 53.85 71.2Q52.3 69.7 52.9 68.75L53.25 69.35L54.15 68.5Q55.35 68.75 54.75 70.95Q55.6 71.8 55.6 72.7L57.45 73.3L57.8 73.3L57.8 73.65L61.15 73.95Q60.8 76.65 59.6 78.25L57.8 77.6Q56.85 78.5 53.5 77.25Q50.55 76.4 49.9 78.25L47.7 77Q47.45 76.4 45.95 75.8Q44.75 75.15 44.75 73.95L45 73.65L45 71.8Q43.5 70.95 40.4 71.45L35.6 71.8Q34.95 72.45 33.5 75.45Q32.5 77.9 30.4 78.25L27.7 88.25Q27.7 98 40.4 97.05Q40.75 97.65 42 98Q43.25 98.3 43.5 98.9L47.45 109.9Q46.55 111.35 47.2 113.2Q48.05 116.55 52.65 125.1L55.95 126.3L56.25 126.3L56.25 125.7Q60.2 124.75 60.2 120.15L62.05 119.55Q61.75 117.45 62.05 116.8L64.75 113.85Q64.75 112 63.9 108.65L66.95 108.65Q67.2 108.05 66.95 106.8L63.9 106.8Q63.9 104.7 65.75 104.1Q65.75 102.25 67.5 101.6Q70.3 100.4 71.8 94.3L66.95 95.55L59.6 81.6Q62.05 81.6 66.35 93.7Q74.25 91.25 77.85 86.4L75.15 83.7Q73.3 84.55 72.05 84.3L72.05 83.05L71.45 82.8L71.2 83.35L69.35 79.75Q70.9 79.1 72.4 80.95Q74.25 82.8 75.75 82.2Q77 83.35 79.1 83.35L82.4 83.05Q83.65 83.35 84.25 85.2Q85.15 86.75 86.1 87.05L87.25 86.4Q88.5 93.45 90.95 97.05Q92.8 94.95 92.8 91Q96.15 88.5 97.65 85.8Q99.45 85.55 100.7 84.55Q101.6 87.3 102.8 88.25Q102.2 90.35 102.55 91Q102.8 91.6 105.55 92.2L104.9 95.55Q106.5 97.05 106.75 99.5L106.15 99.75Q104.05 98 103.05 98L108.6 105.55Q109.5 104.95 109.5 102.6Q108.85 103.1 108.25 102.6L108.25 101.95Q108.6 99.15 108.25 97.65Q106.15 96.15 105.9 94.65Q105.55 93.45 106.75 91.85Q109.25 94.05 109.25 94.95Q114.95 92.2 110.1 87.3Q112.2 87.3 113.2 86.15L112.85 84.9Q118 81.85 118.9 76.4L118.65 76.05Q118.9 73.95 117.15 72.1L117.15 69.7L116.8 70L116.5 69.35L115.55 68.5L117.15 66.35L117.15 67L117.4 67.25L117.4 68.15Q121.95 69.7 121.95 65.15Q121.7 63.3 122.6 62.7L123.2 63.05Q124.7 61.2 124.45 57.85L124.1 52.3L125.65 56.6Q126.25 54.75 123.8 50.55L123.8 50.8L122.6 50.2L121.95 50.2L121.95 50.8L120.45 49.95L121.1 43.5L122.85 42.9L123.2 42.3Q124.45 42.3 124.45 43.5L125.3 42.65Q124.1 39.85 125.05 38.7L125.65 38.95L126.25 39.85L126.25 38.7L126.8 38.7Q128.65 48.7 130.5 51.7Q130.5 49.6 129.6 46.25L128.05 40.8L129 39.3L129.6 39.55Q129.25 36.25 129.9 35.6L127.15 32.9L127.75 32.25L127.15 31.65L126.55 30.8L125.9 30.15L125.3 29.2L124.7 28.6L124.1 27.7L122.6 26.45Q121.35 25.6 119.85 25.6Q119.85 26.2 121.1 27.45Q119.5 27.45 119.25 25.85L119.25 26.8L118 26.8L118 27.45Q114.4 25.25 113.8 25.85Q111 23.5 108.3 23.5Q108.85 23.5 108 24.35L109.25 25.6Q107.65 26.2 107.05 25.85L107.4 27.1Q105.9 26.8 104.9 25.25Q103.45 23.15 102.8 22.85L101.6 22.85L101.6 23.5L101.95 23.75Q100.95 24.35 99.75 23.75L97.35 23.5L96.75 22.85L96.4 22.85Q94.9 18.55 94.3 17.7Q93.4 16.7 92.2 17.95Q91.85 17.05 90.95 16.7L90.05 15.55Q89.7 17.05 90.7 18.3L90.05 18.55L90.35 18.9L89.7 19.2L89.1 19.2Q86.1 21.65 87.85 23.75L85.75 24.65Q85.5 25 86.1 26.8L87 27.7L87 28.3L84.55 26.45L84.9 27.7L84.25 27.7L84.25 28.3L85.5 29.55L84.25 29.2L83.65 26.45L84.25 33.15L85.15 32.9Q84.55 33.5 84.25 35.35L83.65 37.7L83.05 37.45Q84.55 31.9 82.15 26.2L80.95 26.2Q80.6 28.95 79.95 29.2Q80.3 31.9 81.8 33.5L81.55 34.1L76.35 30.8L77.6 33.75L74.25 34.75L73.9 33.75L70.9 35.6L70.55 36.85L69.95 36.85L69.35 35.9L70.3 35Q69.95 34.1 68.7 34.1Q69.05 35 68.7 38.05L67.85 37.45L66.35 38.95L66.6 40.2L64.75 39.55L64.6 39.95Q64.05 41.1 65.1 41.4M103.7 17.7L102.55 17.35L102.8 17.95L101.6 17.35Q102.8 19.8 104.3 20.05Q104.3 18.9 105.25 19.8L104.9 18.9L104.9 18.55L103.7 17.7M86.75 12.15L88.2 15.2L88.5 14.6L89.1 14L87.85 12.75L87.6 12.75L87 12.15L86.75 12.15M81.2 25L80.95 25.25L80.95 25.85L81.55 25.85L81.8 25.6L81.2 25M92.8 98.3Q93.05 98.65 93.4 98.3L93.65 98L94 98L92.8 95.55Q92.2 97.05 92.8 98.3M118.9 85.8Q118.35 90.7 119.5 91Q119.5 92.85 120.1 93.45L119.85 94.65L120.75 94.3L120.75 94.65L120.45 94.65L120.45 95.55L121.35 95.55Q121.35 94.95 121.95 94.65L121.35 90.35Q120.75 90.35 120.75 89.5Q119.5 89.5 119.25 88.5Q120.05 87.25 119.45 86.15L119.5 86.15L119.5 85.8Q119.6 85.95 119.45 86.15L118.9 85.8M117.4 96.8L116.5 95.2Q115.55 97.4 112.55 100.1L111.95 99.5L111.35 101.35Q112.2 101.95 111.95 103.1L111.6 102.85Q111.35 102.85 111 103.75Q110.7 104.7 111 105.3L119.25 104.1L119.5 102.6Q118.65 101.95 118.65 101.35Q119.85 100.4 119.5 100.1L120.45 100.1L120.75 98.9L120.75 98.65Q120.45 99.15 118.9 99.5Q117.4 99.5 117.75 100.4Q117.4 101.95 116.8 102.6L115.9 102.85Q115.3 102.85 115.9 101.95Q116.5 100.75 117.4 99.75Q116.8 98.9 116.8 97.65L117.15 97.05L117.4 96.8M128.05 60.55Q127.75 61.45 127.15 60.2L126.25 59.6Q127.4 62.05 126.25 62.05Q126.55 62.4 126.25 62.4L126.55 63.05L126.55 63.55L126.8 63.05Q126.55 63.05 126.8 62.7Q127.15 62.4 128.05 63.05Q127.75 61.8 128.4 61.8L128.05 60.55M128.4 65.15Q127.4 64.55 126.8 63.55L126.55 65.15L125.05 65.15L125.05 65.4L125.3 65.75L125.3 67L125.65 67.5L125.65 67.85Q126.25 67.25 126.25 68.15L125.65 68.75Q125.05 70.35 124.45 70.35L124.1 68.75Q124.1 71.45 122.85 72.45L123.8 74.3L124.1 72.45L125.3 71.8L126.55 71.45Q126.8 69.35 128.65 66.65Q128.05 65.75 128.4 65.4L128.4 65.15M75.15 8.55L75.15 8.3Q75.15 8.55 74.85 8.2L74.85 9.15L74.5 8.8L74.5 9.4L74.85 9.75L74.85 10.05L75.4 9.4L75.4 8.8L75.15 8.55M75.15 10.4L75.15 10.65L74.85 10.65L74.85 11.25L75.15 11L75.4 11L75.75 10.65L75.4 10.4L75.15 10.4M76.35 9.75Q77.85 11.25 76.6 8.8L76.6 8.55L76.35 8.55Q77 9.15 76.35 9.15L76.35 9.75M68.45 3.7L70.3 3.1L65.75 3.95L65.4 3.95L65.4 4.25L64.75 4.25L61.75 5.2L62.4 4.85L55.95 7.05L57.2 6.45L55.25 6.95L58.45 5.8L57.45 5.8L61.75 4.85L63.55 4.25L63.25 4.25L64.75 3.7L64.5 3.7L66 3.1L64.15 3.7L65.75 3.1L64.5 3.35L65.1 3.1L63 3.7L63.25 3.35L60.8 3.95L61.15 3.95L59.95 4.25L59.95 3.95L58.7 4.25L59.05 4.25L57.2 4.6L57.8 4.6L53.5 6.1L53.85 6.1L53.25 6.45L55.1 6.1L51.15 7.3L51.65 7.05L51.65 6.7L54.75 5.45L54.75 5.2L47.45 7.95L48.05 7.95L47.7 8.2L47.45 8.2L46.85 8.55L45.6 8.8L43.75 10.05L44.1 10.05L45.95 9.4L43.75 10.4L44.1 10.4L42 11.6L42.9 11L42.9 10.65Q40.15 12.5 39.55 12.15L39.3 12.5L38.95 12.5L39.8 11.9L38.05 12.75L38.05 13.1Q35.3 14.35 34.35 15.85L34.7 15.85L34.1 16.1L34.95 16.7L35.3 16.7L37.7 14.6L36.45 14.95L36.8 14.6L36.45 14.35L38.95 13.1L38.65 13.4L38.95 13.4L38.65 13.75L39.3 13.4L39.8 13.75L44.1 11.25Q45.6 11.25 48.05 9.4L49.3 8.8L50.55 8.55L52.65 7.85Q50.35 8.7 47.45 10.05Q40.15 13.75 40.4 15.55L41.4 15.55Q39.55 17.95 33.5 24L33.75 24L33.75 24.35L34.35 23.75L33.75 24.65L34.1 25L33.15 25.85L33.15 25.6L32.85 25.25Q31 27.1 31 27.7L32.25 27.1L32.25 27.45Q31 28.95 30.4 28.95L30.4 28.6Q26.2 33.75 24.35 40.45L24.6 40.2Q25.55 40.45 25.2 42.05Q26.8 40.45 29.5 36.25L31.35 34.4Q31.65 34.75 32.25 34.4L36.2 31.4Q37.1 30.8 39.3 30.45L41.4 28.6L41.05 28.6Q40.75 28.6 40.75 27.7Q41.4 27.7 42 26.45L41.4 27.95L42 27.95L43.75 25L43.75 25.25L45.95 22.85L45.95 23.15L46.85 21.65L47.7 21.65L48.05 21L48.35 19.8L48.95 19.55L49.9 17.95Q50.8 16.7 51.65 16.45L52 16.7L52 16.45L52.3 16.45L52.3 16.1L52.65 16.1L52.65 15.55L52.9 15.2Q54.15 15.2 53.5 14Q56.6 11.25 63.55 7.3Q64.5 7.05 64.5 6.45L63 7.3L63.25 6.7L64.75 5.8L64.5 5.8L68.45 3.95L68.45 3.7M64.15 11.6L63.25 13.4L63.25 13.1L62.4 14.95L63 14.6L63.55 13.75L63.55 14L63.9 14.35L62.05 15.85L62.65 15.85L62.05 16.45L61.75 18.3L65.1 14L63.9 16.7Q64.5 16.45 64.5 17.05L65.1 16.1L65.1 15.85L65.4 14.95L65.1 14.95L65.4 14.35L65.4 13.4L65.75 13.1Q65.45 12.8 65.75 12.15L66.35 12.5L65.75 11.9Q66.35 11 65.75 11L65.1 11.9L65.1 11.6L64.75 11.25L64.15 11.6M66.35 12.5L66.6 12.75L67.2 12.5L68.1 11.25L67.85 10.65L67.85 10.05L67.2 10.65L66.95 10.65L67.2 10.05L66.95 10.4L66.35 10.65L66 11.6Q66.95 11.6 65.75 12.15M79.35 17.95L79.1 17.95L78.2 18.9Q77.85 19.8 77 19.55L74.85 21.9L75.15 22.85Q74.25 24 74.25 25Q73.9 27.45 73 27.95Q73 28.95 73.9 30.45L74.85 30.45Q75.4 30.8 75.75 30.15Q74.25 28.6 75.15 25.85Q75.75 24 76.35 23.15L77.25 21.3L79.1 19.8L79.35 18.55L79.35 17.95M71.2 33.15L71.2 33.75Q72.05 33.75 72.05 32.9L71.8 32.25L71.45 32.25L71.2 33.15M26.8 24.35L27.7 23.5L26.2 25.85L25.85 25.85L25.55 26.2L26.2 26.2L24.95 27.7L24.95 27.1L23.45 28.6L24.6 27.7L24.6 27.95L25.2 27.7L22.25 31.4Q21.25 31.9 21.25 31.05Q20.05 31.9 20.05 32.55L20.65 32.25L20.65 32.9L21 32.9Q19.5 35 20.05 37.1L21.25 34.75L21.25 35.6Q21.25 35.9 21.6 35.6L21.9 35.35L23.45 31.65L24.35 30.8L23.7 31.9Q23.45 32.55 23.7 33.15L25.2 31.4L25.55 31.4L25.85 31.05L25.85 30.8L26.2 30.8L26.2 30.45L26.45 28.3L27.7 26.45L27.7 26.8L27.95 26.8L27.95 26.2L28.55 25.6Q29.15 25.25 29.8 24L29.5 24L29.5 23.75L30.4 22.5Q30.4 21.9 31.65 20.4Q34.1 19.2 33.15 18.3L32.25 19.2L33.15 17.95Q32.7 17.95 32.05 18.45L32.85 17.7Q31.35 17.7 27.95 21L27.4 21.9L27.4 21.65L26.45 22.85L26.8 22.85L26.2 23.75L26.8 24.35M18.3 35L11.85 44.75L10.65 47.75L10.35 46.85L10.35 46.6L11 46L10.65 46L11.85 43.5Q11.25 42.9 12.75 37.7Q4.55 50.55 1.85 66.65L2.1 67.25L2.7 67Q3.05 67 3.05 68.15L3.35 67.85L3.7 68.15L3.7 70.7Q3.8 67.7 4.2 66.35Q6.05 64.55 6.05 63.3L7.65 59.95Q8.15 59.1 8.8 59.1Q8.8 57.25 10.65 56.25L10.65 57.85Q12.75 56.9 13.1 55.65L13.1 55.1L12.5 55.65Q12.5 53.55 13.1 52.3L12.15 52.05Q12.15 51.45 12.75 51.15Q13.35 50.8 13.95 51.15L14.3 51.45L14.95 51.7L14.95 50.8L15.2 51.15L16.1 50.55L16.1 50.8L13.95 54.75L15.55 55.1Q16.1 54.5 16.1 53.55L16.45 53.3L15.8 53.3L15.8 52.3L16.7 50.55L16.45 50.55L17.3 48.7L17.65 46.85Q17.05 46.25 16.7 46.6L19.5 39.3L17.05 41.4L16.7 40.45L18.9 37.7L18.55 37.7Q18.3 37.1 19.15 35.6L18.3 35M36.45 35.6L36.45 35.9L37.1 35.9Q38.05 36.25 36.2 37.1L35.6 37.45L34.7 39.55L37.7 39.85Q38.65 38.7 39.8 38.35L40.15 38.05L40.75 35.9L40.4 35Q39.3 36.25 38.3 35.35Q38.3 35.9 37.7 36.25L38.05 35.35Q38.05 34.4 37.45 35L36.8 35.6L36.8 35.35L36.45 35.6M1.85 74.3L1.25 76.05L0.9 77.9L1.25 78.25L1.25 78.5Q2.35 83.65 3.35 85.55Q3.45 86.45 3.7 86.75L3.7 85.8Q4.55 87.3 4.55 89.15L4.2 88.25L4.85 94.65Q4.55 95.2 5.45 98.3L6.7 101.6L6.7 101.35Q7.65 101.95 12.15 111.65L11.6 111Q11.6 113.2 19.15 124.1L18.55 122.9Q21.9 127.2 24.6 129.9L22.85 127.45Q21 125.1 21 124.45L20.05 123.25L22.5 124.1L18.9 119.3L20.05 119.9Q20.4 118.95 19.5 115.6Q18.9 112.85 20.65 113.2L20.65 112Q19.75 108.65 19.75 107.05Q20.65 104.95 20.65 103.75Q20.4 101.35 18.3 99.75L16.1 98.9L15.55 98L13.7 96.8L13.35 96.45L12.15 92.5Q9.75 90.35 9.4 88.5L8.5 86.75Q6.7 86.75 5.8 84.55L5.8 85.2L5.45 84.3L5.2 84.9L4.85 84.55L4.2 86.4L3.7 85.2L3.35 85.55Q2.7 83.35 2.45 78.85L2.1 74.55L1.85 74.3M67.2 114.7Q67.5 116.55 67.2 118.4L67.2 120.8L69.35 120.15Q69.35 118.95 70.3 116.55L71.2 113.85Q71.2 112.6 70.3 111.65Q70.3 112.6 69.7 113.2L67.2 114.7M131.7 101.35L131.7 100.4Q130.75 100.75 129 100.1Q126.55 99.5 125.65 101.35L125.05 99.5L124.45 98.9L124.1 99.5Q123.45 98.9 123.2 99.15L124.7 101.95L125.05 101.95Q128.05 101.6 126.25 104.35L129.9 104.35L131.35 104.7L132.6 103.45Q133.2 102.85 133.2 101.6L133.2 101.35Q133.55 101.6 134.2 101.35L134.2 101Q132.35 100.4 131.7 101.35M123.2 107.05L121.1 109.9Q120.75 109.25 120.1 109.25Q119.5 109.25 118.65 110.5Q118 112 117.15 111.65Q116.5 113.85 113.8 114.95Q111.95 115.6 111.6 116.2L110.7 118.95Q111.6 121.4 110.1 123.85Q110.7 124.75 111.95 124.1Q113.8 122.9 114.4 123.25Q115.9 121.75 116.5 121.4L118.65 121.15Q120.1 121.15 119.25 122.9L120.75 121.75L119.5 123.5L120.75 122.9L120.45 124.45L121.1 124.75L122.3 124.1L122.3 124.45Q122.85 124.45 124.1 123.5Q127.15 119.55 128.4 117.15Q129.25 115.35 129 112.6Q128.4 109.25 128.65 108.05L128.05 108.05Q128.65 106.55 127.75 105.9Q126.25 110.15 125.65 110.75Q124.45 109.9 124.1 108.9Q125.05 108.65 125.05 107.4Q123.8 106.8 123.2 107.05M122.3 125.95L120.75 126.3L120.45 127.2L120.1 127.8Q120.75 127.8 121.95 126.3L122.3 125.95M114.65 106.2L109.25 105.55Q110.1 108.05 114.65 106.55L114.65 106.2M84.55 11.9L85.15 12.75L85.5 12.75L86.75 13.4L87 13.4L85.75 11.6L84.9 10.65L85.15 11.25L84.25 10.4L83.65 9.4L82.15 8.2L82.4 9.15L82.8 9.4L83.05 10.05L83.3 11L83.65 11.6L84.25 11.6Q84.55 11.7 84.55 11.9M15.55 33.75L16.7 32.9L17.95 31.4L18.3 31.65L19.5 30.15L19.75 29.55L19.75 29.8L21.25 28.6L21 29.2L22.85 27.95L25.85 24L24 25.6L24.35 25.6Q24 25.6 23.1 26.45L23.1 26.2L22.85 26.8L21.9 27.45L23.45 25.6Q24 25.25 24.35 24.35L23.1 25.6L25.2 22.85Q19.95 27.8 15.55 33.75M18.9 32.25L18.55 33.15L19.15 32.9L19.15 32.25L19.75 31.4L20.05 30.15L20.65 29.2L18.3 32.25L17.95 32.25L17.95 32.55L18.3 32.25L17.95 32.9L18.9 32.25M5.2 78.5L4.55 78.85L4.85 79.1L5.45 80L6.05 79.75L6.4 79.75Q6.05 78.5 5.45 78.25Q5.4 78.15 5.2 78.25L5.2 78.5" />
</g>
<g id="PathID_180" transform="matrix(0.172345, 0, 0, 0.172345, 18.65, 18.65)" opacity="1">
</g>
</svg>
