<?xml version="1.0" encoding="utf-8"?>
<svg version="1.1" id="Layer_1"
xmlns="http://www.w3.org/2000/svg"
xmlns:xlink="http://www.w3.org/1999/xlink"
width="211px" height="63px"
xml:space="preserve">
<g id="PathID_1" transform="matrix(0.151485, 0.00156245, -0.00156245, 0.151485, 23.45, 18.65)" opacity="1">
<path style="fill:#EA6D1F;fill-opacity:1" d="M125.35 46.05Q124.75 53.4 123.85 57.75L120.75 69.35L120.75 77.05Q120.75 82.8 119.5 85.05Q118.6 86.15 118.6 89.25L119.2 92.05L120.45 105.55Q121.65 111.1 119.2 132.4L118.6 134.55Q118.3 135.45 118.9 137.65Q119.5 139.35 118 140.85L114.6 143.95Q113.65 145.25 109.35 145.55Q104.85 146.15 104.55 143.95Q104.4 142.45 106.85 139.95Q108.75 137.5 108.75 136.9Q108.45 136.6 108.15 136.6Q107.9 136 108.75 134.55L110.85 131.5Q111.2 130.45 111 129L110.85 126.5Q111.8 121.2 111 116.7Q109.95 111.7 110.55 108.8Q110.85 108.05 109.35 102.15Q109.05 100.95 107.9 99.1Q106.85 97.05 107.9 100.35Q109.35 104.35 108.15 125L107.6 128.7Q107.45 131.5 103.8 131.8L96.2 132.4L90.05 132.6Q86.95 132.4 87.25 131.05L87.8 130.15Q87.8 129.6 86.65 129.85L80.2 129.6Q76 129 78.3 130.75L80.8 132.9L82.05 134.1Q85.15 135.45 81.1 137.5Q76.5 139.35 73.75 137.5L70.35 135.15Q68.75 134.4 69.05 132.4L69.05 129.6Q69.05 127.05 67.55 125Q67.25 124.55 66.45 118.55Q65.85 113.3 65.85 111.4Q65.85 102.3 67.85 94Q68.45 91.75 68.75 84.15Q68.75 75.8 67.85 74.3L67.55 73.3L65.85 78.3L63.05 92.8L62 96.75Q61.7 97.9 62.3 100.15L62 104.95Q61.4 109.1 61.7 110.5L62 114.2L61.7 118.55L61.4 121.65Q61.2 123.45 62 124.55L62.3 125.9Q62.6 127.05 63.65 128.1Q66.15 130.75 62 131.35Q57.5 131.5 56.9 129.6Q56.6 129 54.4 127.65Q52.75 126.75 53.2 123.95Q53.8 121.5 52.9 119.15Q52.25 116.1 51.95 112.4L52.55 96.15Q52.55 90.3 51.95 87.5Q51.95 84.75 51.35 86.9L50.75 88.1L49.45 95.4L48.25 99.1L47.35 106.25L46.4 112Q46.1 113.9 46.4 118.1Q46.55 121.65 45.2 125Q44.9 125.9 44.9 129.6L45.5 130.45L45.8 131.8Q46.4 134.55 43 135.15L40.9 134.85Q37.3 134.85 38.1 129.6Q38.7 127.65 38.7 126.75Q38.7 125.3 37.3 124.25Q37 124.25 37 122.25L38.4 100.35Q39.3 87.2 37.3 77.35L36.85 75.8Q36.25 76.1 35.35 75.5Q35.35 73.75 34.8 74L33.6 74.6Q33.9 74.9 33.15 75.5L33.15 80.45Q33.15 84.45 32.05 86.9L31.15 91.5Q30.55 94 29.45 95.1Q28.65 96.15 27.45 101.25Q26.4 106.55 25.85 107.75Q25.25 108.8 24.65 111.7Q23.9 115 24.05 116.4Q24.95 122.55 24.95 134.85Q24.95 135.7 24.35 135.15Q23.9 134.85 24.35 138.25Q24.65 139.65 30.05 143.95Q33.6 146.75 29.45 148.6Q28.05 149.2 24.65 149.8Q23.3 150.5 20.55 148.3L17.45 146.15Q16 144.65 16.3 141.35Q16.65 140.55 16 139.35L15.4 137.95Q15.7 137.65 14.5 136.6L13.55 134.55L13.25 132.6Q12.35 130.75 12.65 127.05L13.25 120.65L14.15 106.85L10.15 89.7Q9.85 81.95 8.65 79.2L5.35 70.7Q4.3 69.35 4.6 67.9Q4.6 65.95 3.7 64.2Q0 57.45 0 50.3L0.6 46.95L1.5 41.75Q1.95 38.15 1.5 36.8Q0.9 34.6 3.4 31.25Q4.75 28.9 11.5 25.5Q17.9 22.15 18.2 21.4Q19.4 16.3 19.1 16Q18.5 15.7 17.9 14.1Q17.25 11.3 17.25 8.55Q17.25 4.85 18.5 3.15L22.2 0.85L23.1 0.65Q23.9 0.65 24.05 0.05Q26.7 -0.25 28.05 1.45L30.85 3.45L31.45 4.85L32.05 7.95Q32.25 9.15 31.75 11.9Q31.15 15 30.55 15.55Q28.35 19.95 28.65 21.15Q28.65 22 31.45 23.65Q33.9 25.05 33.6 27Q33.6 27.55 34.2 28.45Q34.8 29.2 35.05 31.55Q35.05 33.1 36.25 30.95Q36.85 28.6 37.6 28.15L40.9 26.7L43.75 25.2Q43.75 25.05 45.8 24.45Q47.65 23.95 47.95 23.05Q48.85 20.25 47.35 18.1Q46.75 17.2 46.75 13.8L47.05 12.6Q47.05 6.5 51.95 4.55Q54.1 3.95 56.6 5.75Q59.4 7.65 59.7 9.8L59.7 12.35Q59.4 12.9 60.3 13.8Q61.2 15 59.4 18.75Q57.8 22.45 58.65 23.05Q60 23.95 63.05 24.45L66.75 26.1Q67.85 27 68.45 30.05Q68.75 31.55 72.6 28.45L74.95 26.4L75.4 24.15L75.7 24.15L76.2 23.35Q76.5 22.75 76 22.45Q75.25 22 74.65 20.55Q74.05 19.35 74.65 18.6L74.95 17.2Q74.05 12.2 77.7 9.5Q81.4 7.35 83.85 9.3Q87.25 11.9 86.95 14.4L86.95 17.2Q87.55 18.75 87.25 20.25L86.35 22.45Q86.35 23.05 85.15 25.8Q85 26.1 86.65 27.25Q89.45 29.2 88.55 30.35Q86.95 32.6 87.55 35.9Q87.8 38 88.85 41.55L90.85 44.45Q91.9 46.35 90.35 47.25Q89.45 47.55 89.75 51.9Q89.75 54.1 90.05 55.9Q93.4 47.9 92.5 47.55L91.9 47.25L92.2 45.75Q93.1 33.1 93.95 30.65Q93.65 27.25 94.55 27L96.2 26.7Q96.7 26.1 96.4 24.45Q96.4 23.05 97.3 22.75L98.95 22Q101.15 21.15 100.4 19.95Q99.8 19.65 98.95 16.9L98.35 13.8Q98.65 10.1 98.05 9.8Q97.3 10.1 96.7 9.8Q95.9 9.8 96.7 8.85Q97.6 7.65 98.05 7.35Q98.65 6.75 98.65 5.9Q98.65 4.85 99.25 4.25Q101.15 2.35 102.9 2.05L107.15 2.05L109.35 2.65Q113.95 5.15 112.7 7.35Q112.4 8.25 112.7 10.1Q113.3 11.6 111.8 14.4L111.5 15.7L113 20.25Q113.3 21.4 120 24.75L121.65 25.05Q122.8 25.8 124.15 28.6Q125.85 32 125.85 37.1L125.35 46.05M91.15 80.75Q90.55 80.45 89.75 81.35Q89.15 81.65 88.55 79.85Q88.1 79.8 88.25 78.6Q89.15 76.7 88.85 75.5L88.1 75.2L82.35 94.3L82.05 96.75Q81.85 98.5 79.9 100.65Q79.3 101.25 79.3 105.55Q78.6 108.35 78.75 111.1Q79.3 113.9 79 114.5Q78.3 117.3 78.75 118.1L80.2 120.35Q81.7 123.95 82.65 124.55L85.45 126.2L88.55 126.5L90.05 126.75L90.85 128.4Q91.15 129 93.95 127.65L96.2 126.75Q98.65 125.9 98.95 124.85Q98.65 122.25 98.95 120.9Q99.5 117.9 99.25 112.1Q97.9 104.05 97.3 102.6L94.25 86.6Q93.4 81.65 92.8 81.35L91.15 80.75" />
</g>
<g id="PathID_2" transform="matrix(0.151485, 0.00156245, -0.00156245, 0.151485, 23.45, 18.65)" opacity="1">
</g>
<g id="PathID_3" transform="matrix(-0.698573, 0.0802123, -0.0785995, -0.684528, 30.45, 31.95)" opacity="1">
<path style="fill:#0065A3;fill-opacity:1" d="M34.35 -21Q39.7 -11.55 39.7 0.15Q39.7 11.85 34.35 21.35Q31.4 26.6 26.9 31.05Q16.15 41.75 1.8 43.5Q13.45 41.75 22.35 33Q33.15 22.05 33.15 6.7Q33.15 -8.7 22.35 -19.55Q11.4 -30.5 -3.9 -30.5Q-19.4 -30.5 -30.2 -19.55Q-41.05 -8.7 -41.05 6.7Q-41.05 22.05 -30.2 33Q-21.45 41.75 -9.75 43.5Q-24.25 41.75 -34.95 31.05Q-47.65 18.2 -47.65 0.15Q-47.65 -17.9 -34.95 -30.75Q-22.1 -43.5 -3.9 -43.5Q14.1 -43.5 26.9 -30.75Q31.4 -26.2 34.35 -21" />
</g>
<g id="PathID_4" transform="matrix(-0.698573, 0.0802123, -0.0785995, -0.684528, 30.45, 31.95)" opacity="1">
</g>
<g id="PathID_5" transform="matrix(0.47727, 0, 0, 0.47727, 34.55, 23.7)" opacity="1">
<path style="fill:#AEBC20;fill-opacity:1" d="M34.35 -21Q39.7 -11.55 39.7 0.15Q39.7 11.85 34.35 21.35Q31.4 26.6 26.9 31.05Q16.15 41.75 1.8 43.5Q13.45 41.75 22.35 33Q33.15 21.75 33.15 6.7Q33.15 -8.7 22.35 -19.55Q11.4 -30.5 -3.9 -30.5Q-19.4 -30.5 -30.2 -19.55Q-41.05 -8.7 -41.05 6.7Q-41.05 22.05 -30.2 33Q-21.45 41.75 -9.75 43.5Q-24.25 41.75 -34.95 31.05Q-47.65 18.2 -47.65 0.15Q-47.65 -17.9 -34.95 -30.75Q-22.1 -43.5 -3.9 -43.5Q14.1 -43.5 26.9 -30.75Q31.4 -26.2 34.35 -21" />
</g>
<g id="PathID_6" transform="matrix(0.47727, 0, 0, 0.47727, 34.55, 23.7)" opacity="1">
</g>
<g id="PathID_7" transform="matrix(1.20567, 0, 0, 0.145173, 139.8, 50.05)" opacity="1">
<path style="fill:#0065A3;fill-opacity:1" d="M51.5 -51.5L51.5 51.5L-51.5 51.5L-51.5 -51.5L51.5 -51.5" />
</g>
<g id="PathID_8" transform="matrix(1.20567, 0, 0, 0.145173, 139.8, 50.05)" opacity="1">
</g>
<g id="PathID_9" transform="matrix(0.225232, 0, 0, 0.225232, 82.05, 54.8)" opacity="1">
<path style="fill:#FFFFFF;fill-opacity:1" d="M29.4 -35.85L17.65 -13L17.65 0L11.7 0L11.7 -12.9L0.25 -35.85L7 -35.85L14.05 -20.45Q14.2 -20.2 14.8 -18.4L14.9 -18.4Q15.1 -19.2 15.7 -20.45L23.1 -35.85L29.4 -35.85" />
</g>
<g id="PathID_10" transform="matrix(0.225232, 0, 0, 0.225232, 82.05, 54.8)" opacity="1">
</g>
<g id="PathID_11" transform="matrix(0.225232, 0, 0, 0.225232, 88.7, 54.8)" opacity="1">
<path style="fill:#FFFFFF;fill-opacity:1" d="M15.1 0.6Q9.2 0.6 5.65 -2.95Q2.1 -6.55 2.1 -12.5Q2.1 -18.95 5.8 -22.55Q9.5 -26.2 15.75 -26.2Q21.75 -26.2 25.1 -22.65Q28.45 -19.15 28.45 -12.9Q28.45 -6.75 24.8 -3.05Q21.2 0.6 15.1 0.6M15.4 -21.55Q12 -21.55 10 -19.15Q8.05 -16.8 8.05 -12.65Q8.05 -8.6 10.05 -6.3Q12.05 -4 15.4 -4Q18.8 -4 20.65 -6.25Q22.5 -8.55 22.5 -12.75Q22.5 -16.95 20.65 -19.25Q18.8 -21.55 15.4 -21.55" />
</g>
<g id="PathID_12" transform="matrix(0.225232, 0, 0, 0.225232, 88.7, 54.8)" opacity="1">
</g>
<g id="PathID_13" transform="matrix(0.225232, 0, 0, 0.225232, 96.6, 54.8)" opacity="1">
<path style="fill:#FFFFFF;fill-opacity:1" d="M26.1 0L20.3 0L20.3 -4.05L20.2 -4.05Q17.65 0.6 12.35 0.6Q3.25 0.6 3.25 -10.3L3.25 -25.6L9.05 -25.6L9.05 -10.9Q9.05 -4 14.4 -4Q16.95 -4 18.6 -5.9Q20.3 -7.8 20.3 -10.85L20.3 -25.6L26.1 -25.6L26.1 0" />
</g>
<g id="PathID_14" transform="matrix(0.225232, 0, 0, 0.225232, 96.6, 54.8)" opacity="1">
</g>
<g id="PathID_15" transform="matrix(0.225232, 0, 0, 0.225232, 104.35, 54.8)" opacity="1">
<path style="fill:#FFFFFF;fill-opacity:1" d="M17.25 -0.25Q15.55 0.6 12.8 0.6Q5.35 0.6 5.35 -6.55L5.35 -21.05L1.05 -21.05L1.05 -25.6L5.35 -25.6L5.35 -31.5L11.15 -33.15L11.15 -25.6L17.25 -25.6L17.25 -21.05L11.15 -21.05L11.15 -8.25Q11.15 -5.95 11.95 -4.95Q12.8 -4 14.7 -4Q16.2 -4 17.25 -4.85L17.25 -0.25" />
</g>
<g id="PathID_16" transform="matrix(0.225232, 0, 0, 0.225232, 104.35, 54.8)" opacity="1">
</g>
<g id="PathID_17" transform="matrix(0.225232, 0, 0, 0.225232, 109.55, 54.8)" opacity="1">
<path style="fill:#FFFFFF;fill-opacity:1" d="M26.5 0L20.7 0L20.7 -14Q20.7 -21.6 15.65 -21.6Q13.1 -21.6 11.35 -19.4Q9.6 -17.2 9.6 -13.75L9.6 0L3.75 0L3.75 -37.9L9.6 -37.9L9.6 -21.35L9.7 -21.35Q12.6 -26.2 18 -26.2Q26.5 -26.2 26.5 -15.75L26.5 0" />
</g>
<g id="PathID_18" transform="matrix(0.225232, 0, 0, 0.225232, 109.55, 54.8)" opacity="1">
</g>
<g id="PathID_19" transform="matrix(0.225232, 0, 0, 0.225232, 121.5, 54.8)" opacity="1">
<path style="fill:#FFFFFF;fill-opacity:1" d="M23.75 -30.8L10.35 -30.8L10.35 -20L22.7 -20L22.7 -15L10.35 -15L10.35 0L4.4 0L4.4 -35.85L23.75 -35.85L23.75 -30.8" />
</g>
<g id="PathID_20" transform="matrix(0.225232, 0, 0, 0.225232, 121.5, 54.8)" opacity="1">
</g>
<g id="PathID_21" transform="matrix(0.225232, 0, 0, 0.225232, 128.35, 54.8)" opacity="1">
<path style="fill:#FFFFFF;fill-opacity:1" d="M15.1 0.6Q9.2 0.6 5.65 -2.95Q2.1 -6.55 2.1 -12.5Q2.1 -18.95 5.8 -22.55Q9.5 -26.2 15.75 -26.2Q21.75 -26.2 25.1 -22.65Q28.45 -19.15 28.45 -12.9Q28.45 -6.75 24.8 -3.05Q21.2 0.6 15.1 0.6M15.4 -21.55Q12 -21.55 10 -19.15Q8.05 -16.8 8.05 -12.65Q8.05 -8.6 10.05 -6.3Q12.05 -4 15.4 -4Q18.8 -4 20.65 -6.25Q22.5 -8.55 22.5 -12.75Q22.5 -16.95 20.65 -19.25Q18.8 -21.55 15.4 -21.55" />
</g>
<g id="PathID_22" transform="matrix(0.225232, 0, 0, 0.225232, 128.35, 54.8)" opacity="1">
</g>
<g id="PathID_23" transform="matrix(0.225232, 0, 0, 0.225232, 136.3, 54.8)" opacity="1">
<path style="fill:#FFFFFF;fill-opacity:1" d="M18.6 -20.05Q17.55 -20.9 15.6 -20.9Q13 -20.9 11.25 -18.55Q9.55 -16.25 9.55 -12.25L9.55 0L3.75 0L3.75 -25.6L9.55 -25.6L9.55 -20.3L9.65 -20.3Q10.5 -23 12.25 -24.5Q14.05 -26.05 16.2 -26.05Q17.8 -26.05 18.6 -25.55L18.6 -20.05" />
</g>
<g id="PathID_24" transform="matrix(0.225232, 0, 0, 0.225232, 136.3, 54.8)" opacity="1">
</g>
<g id="PathID_25" transform="matrix(0.225232, 0, 0, 0.225232, 145.8, 54.8)" opacity="1">
<path style="fill:#FFFFFF;fill-opacity:1" d="M10.35 -13L10.35 0L4.4 0L4.4 -35.85L15.3 -35.85Q21.45 -35.85 24.85 -32.95Q28.25 -30.1 28.25 -24.85Q28.25 -19.65 24.7 -16.3Q21.15 -13 15.1 -13L10.35 -13M10.35 -30.95L10.35 -17.85L14.2 -17.85Q18 -17.85 20 -19.6Q22 -21.4 22 -24.6Q22 -30.95 14.65 -30.95L10.35 -30.95" />
</g>
<g id="PathID_26" transform="matrix(0.225232, 0, 0, 0.225232, 145.8, 54.8)" opacity="1">
</g>
<g id="PathID_27" transform="matrix(0.225232, 0, 0, 0.225232, 153.25, 54.8)" opacity="1">
<path style="fill:#FFFFFF;fill-opacity:1" d="M23.4 0L17.8 0L17.8 -4L17.7 -4Q15.05 0.6 9.9 0.6Q6.15 0.6 4 -1.45Q1.85 -3.5 1.85 -6.85Q1.85 -14.1 10.2 -15.3L17.8 -16.4Q17.8 -21.85 12.6 -21.85Q8.05 -21.85 4.35 -18.7L4.35 -23.8Q8.4 -26.2 13.7 -26.2Q23.4 -26.2 23.4 -16.65L23.4 0M17.8 -12.55L12.45 -11.8Q9.95 -11.5 8.65 -10.6Q7.4 -9.7 7.4 -7.5Q7.4 -5.85 8.55 -4.8Q9.75 -3.8 11.7 -3.8Q14.35 -3.8 16.05 -5.65Q17.8 -7.5 17.8 -10.35L17.8 -12.55" />
</g>
<g id="PathID_28" transform="matrix(0.225232, 0, 0, 0.225232, 153.25, 54.8)" opacity="1">
</g>
<g id="PathID_29" transform="matrix(0.225232, 0, 0, 0.225232, 160.3, 54.8)" opacity="1">
<path style="fill:#FFFFFF;fill-opacity:1" d="M27 0L19.65 0L9.7 -12.3L9.6 -12.3L9.6 0L3.75 0L3.75 -37.9L9.6 -37.9L9.6 -13.85L9.7 -13.85L19.1 -25.6L26.05 -25.6L15.5 -13.25L27 0" />
</g>
<g id="PathID_30" transform="matrix(0.225232, 0, 0, 0.225232, 160.3, 54.8)" opacity="1">
</g>
<g id="PathID_31" transform="matrix(0.225232, 0, 0, 0.225232, 167.4, 54.8)" opacity="1">
<path style="fill:#FFFFFF;fill-opacity:1" d="M6.7 -30.95Q5.25 -30.95 4.25 -31.85Q3.25 -32.8 3.25 -34.25Q3.25 -35.65 4.25 -36.6Q5.25 -37.55 6.7 -37.55Q8.15 -37.55 9.15 -36.6Q10.2 -35.65 10.2 -34.25Q10.2 -32.9 9.15 -31.9Q8.15 -30.95 6.7 -30.95M9.55 0L3.75 0L3.75 -25.6L9.55 -25.6L9.55 0" />
</g>
<g id="PathID_32" transform="matrix(0.225232, 0, 0, 0.225232, 167.4, 54.8)" opacity="1">
</g>
<g id="PathID_33" transform="matrix(0.225232, 0, 0, 0.225232, 171.45, 54.8)" opacity="1">
<path style="fill:#FFFFFF;fill-opacity:1" d="M2.15 -0.8L2.15 -6.15Q5.4 -3.7 9.35 -3.7Q14.6 -3.7 14.6 -6.8Q14.6 -7.65 14.15 -8.25Q13.7 -8.9 12.9 -9.35Q12.15 -9.85 11.1 -10.2L8.8 -11.05Q7.25 -11.7 5.95 -12.4Q4.7 -13.1 3.85 -13.95Q3.05 -14.85 2.6 -15.95Q2.2 -17.1 2.2 -18.6Q2.2 -20.45 3.05 -21.85Q3.95 -23.3 5.4 -24.25Q6.9 -25.2 8.75 -25.7Q10.65 -26.2 12.65 -26.2Q16.2 -26.2 19 -25.1L19 -20.05Q16.3 -21.9 12.8 -21.9Q11.7 -21.9 10.8 -21.65Q9.9 -21.45 9.25 -21.05Q8.65 -20.65 8.3 -20.05Q7.95 -19.5 7.95 -18.85Q7.95 -18 8.3 -17.4Q8.65 -16.85 9.35 -16.4Q10.05 -16 11 -15.6L13.2 -14.85Q14.85 -14.15 16.15 -13.45Q17.5 -12.75 18.4 -11.85Q19.35 -11 19.85 -9.8Q20.35 -8.65 20.35 -7.05Q20.35 -5.1 19.45 -3.65Q18.55 -2.2 17.05 -1.25Q15.55 -0.3 13.55 0.15Q11.6 0.6 9.45 0.6Q5.25 0.6 2.15 -0.8" />
</g>
<g id="PathID_34" transform="matrix(0.225232, 0, 0, 0.225232, 171.45, 54.8)" opacity="1">
</g>
<g id="PathID_35" transform="matrix(0.225232, 0, 0, 0.225232, 177.45, 54.8)" opacity="1">
<path style="fill:#FFFFFF;fill-opacity:1" d="M17.25 -0.25Q15.55 0.6 12.8 0.6Q5.35 0.6 5.35 -6.55L5.35 -21.05L1.05 -21.05L1.05 -25.6L5.35 -25.6L5.35 -31.5L11.15 -33.15L11.15 -25.6L17.25 -25.6L17.25 -21.05L11.15 -21.05L11.15 -8.25Q11.15 -5.95 11.95 -4.95Q12.8 -4 14.7 -4Q16.2 -4 17.25 -4.85L17.25 -0.25" />
</g>
<g id="PathID_36" transform="matrix(0.225232, 0, 0, 0.225232, 177.45, 54.8)" opacity="1">
</g>
<g id="PathID_37" transform="matrix(0.225232, 0, 0, 0.225232, 182.65, 54.8)" opacity="1">
<path style="fill:#FFFFFF;fill-opacity:1" d="M23.4 0L17.8 0L17.8 -4L17.7 -4Q15.05 0.6 9.9 0.6Q6.15 0.6 4 -1.45Q1.85 -3.5 1.85 -6.85Q1.85 -14.1 10.2 -15.3L17.8 -16.4Q17.8 -21.85 12.6 -21.85Q8.05 -21.85 4.35 -18.7L4.35 -23.8Q8.4 -26.2 13.7 -26.2Q23.4 -26.2 23.4 -16.65L23.4 0M17.8 -12.55L12.45 -11.8Q9.95 -11.5 8.65 -10.6Q7.4 -9.7 7.4 -7.5Q7.4 -5.85 8.55 -4.8Q9.75 -3.8 11.7 -3.8Q14.35 -3.8 16.05 -5.65Q17.8 -7.5 17.8 -10.35L17.8 -12.55" />
</g>
<g id="PathID_38" transform="matrix(0.225232, 0, 0, 0.225232, 182.65, 54.8)" opacity="1">
</g>
<g id="PathID_39" transform="matrix(0.225232, 0, 0, 0.225232, 189.7, 54.8)" opacity="1">
<path style="fill:#FFFFFF;fill-opacity:1" d="M26.55 0L20.75 0L20.75 -14.4Q20.75 -21.6 15.7 -21.6Q13.05 -21.6 11.3 -19.6Q9.6 -17.6 9.6 -14.6L9.6 0L3.75 0L3.75 -25.6L9.6 -25.6L9.6 -21.35L9.7 -21.35Q12.55 -26.2 18 -26.2Q22.15 -26.2 24.35 -23.45Q26.55 -20.75 26.55 -15.65L26.55 0" />
</g>
<g id="PathID_40" transform="matrix(0.225232, 0, 0, 0.225232, 189.7, 54.8)" opacity="1">
</g>
<g id="PathID_41" transform="matrix(0.354979, 0, 0, 0.354979, 75.9, 19.05)" opacity="1">
<path style="fill:#99459A;fill-opacity:1" d="M13.35 0L13.35 -15.4L-0.1 -36.65L8.65 -36.65L17.2 -22.1L25.65 -36.65L34.15 -36.65L20.75 -15.35L20.75 0L13.35 0" />
</g>
<g id="PathID_42" transform="matrix(0.354979, 0, 0, 0.354979, 75.9, 19.05)" opacity="1">
</g>
<g id="PathID_43" transform="matrix(0.354979, 0, 0, 0.354979, 86.05, 19.05)" opacity="1">
<path style="fill:#99459A;fill-opacity:1" d="M2 -13.65Q2 -17.15 3.7 -20.4Q5.45 -23.7 8.6 -25.4Q11.75 -27.15 15.7 -27.15Q21.7 -27.15 25.55 -23.2Q29.45 -19.3 29.45 -13.35Q29.45 -7.3 25.55 -3.35Q21.65 0.6 15.75 0.6Q12.05 0.6 8.75 -1.05Q5.45 -2.7 3.7 -5.85Q2 -9.05 2 -13.65M9.2 -13.25Q9.2 -9.3 11.05 -7.2Q12.95 -5.15 15.7 -5.15Q18.45 -5.15 20.3 -7.2Q22.2 -9.3 22.2 -13.3Q22.2 -17.2 20.3 -19.3Q18.45 -21.4 15.7 -21.4Q12.95 -21.4 11.05 -19.3Q9.2 -17.2 9.2 -13.25" />
</g>
<g id="PathID_44" transform="matrix(0.354979, 0, 0, 0.354979, 86.05, 19.05)" opacity="1">
</g>
<g id="PathID_45" transform="matrix(0.354979, 0, 0, 0.354979, 96.5, 19.05)" opacity="1">
<path style="fill:#99459A;fill-opacity:1" d="M21.15 0L21.15 -3.95Q19.7 -1.85 17.3 -0.6Q14.95 0.6 12.35 0.6Q9.65 0.6 7.5 -0.55Q5.4 -1.75 4.45 -3.85Q3.55 -6 3.55 -9.75L3.55 -26.55L10.6 -26.55L10.6 -14.35Q10.6 -8.75 10.95 -7.5Q11.35 -6.25 12.35 -5.5Q13.4 -4.8 14.95 -4.8Q16.75 -4.8 18.15 -5.75Q19.6 -6.75 20.1 -8.2Q20.65 -9.65 20.65 -15.35L20.65 -26.55L27.7 -26.55L27.7 0L21.15 0" />
</g>
<g id="PathID_46" transform="matrix(0.354979, 0, 0, 0.354979, 96.5, 19.05)" opacity="1">
</g>
<g id="PathID_47" transform="matrix(0.354979, 0, 0, 0.354979, 107, 19.05)" opacity="1">
<path style="fill:#99459A;fill-opacity:1" d="M27.8 0L20.75 0L20.75 -13.5Q20.75 -17.8 20.3 -19.05Q19.85 -20.35 18.8 -21.05Q17.8 -21.75 16.4 -21.75Q14.6 -21.75 13.15 -20.75Q11.7 -19.75 11.15 -18.1Q10.65 -16.45 10.65 -12L10.65 0L3.6 0L3.6 -26.55L10.15 -26.55L10.15 -22.65Q13.6 -27.15 18.85 -27.15Q21.2 -27.15 23.1 -26.3Q25.05 -25.45 26 -24.15Q27 -22.85 27.4 -21.2Q27.8 -19.55 27.8 -16.5L27.8 0" />
</g>
<g id="PathID_48" transform="matrix(0.354979, 0, 0, 0.354979, 107, 19.05)" opacity="1">
</g>
<g id="PathID_49" transform="matrix(0.354979, 0, 0, 0.354979, 117.5, 19.05)" opacity="1">
<path style="fill:#99459A;fill-opacity:1" d="M3 1.7L11.05 2.7Q11.2 4.15 11.95 4.65Q12.95 5.4 15.1 5.4Q17.85 5.4 19.2 4.6Q20.15 4.05 20.6 2.8Q20.95 1.95 20.95 -0.45L20.95 -4.35Q17.8 0 13 0Q7.65 0 4.5 -4.5Q2.1 -8.1 2.1 -13.4Q2.1 -20.1 5.3 -23.6Q8.5 -27.15 13.25 -27.15Q18.2 -27.15 21.4 -22.8L21.4 -26.55L28 -26.55L28 -2.7Q28 2 27.2 4.3Q26.4 6.65 25 7.95Q23.6 9.3 21.25 10.05Q18.95 10.8 15.35 10.8Q8.6 10.8 5.75 8.45Q2.95 6.15 2.95 2.6L3 1.7M9.3 -13.8Q9.3 -9.6 10.9 -7.65Q12.55 -5.7 14.95 -5.7Q17.5 -5.7 19.25 -7.7Q21.05 -9.7 21.05 -13.65Q21.05 -17.75 19.35 -19.75Q17.65 -21.75 15.05 -21.75Q12.55 -21.75 10.9 -19.75Q9.3 -17.8 9.3 -13.8" />
</g>
<g id="PathID_50" transform="matrix(0.354979, 0, 0, 0.354979, 117.5, 19.05)" opacity="1">
</g>
<g id="PathID_51" transform="matrix(0.354979, 0, 0, 0.354979, 76, 36.75)" opacity="1">
<path style="fill:#99459A;fill-opacity:1" d="M27.15 -13.5L34.35 -11.25Q32.7 -5.2 28.85 -2.25Q25 0.65 19.1 0.65Q11.8 0.65 7.1 -4.3Q2.45 -9.3 2.45 -17.95Q2.45 -27.15 7.15 -32.2Q11.85 -37.3 19.55 -37.3Q26.3 -37.3 30.5 -33.3Q33 -30.95 34.25 -26.55L26.9 -24.8Q26.25 -27.65 24.15 -29.3Q22.1 -30.95 19.2 -30.95Q15.15 -30.95 12.6 -28Q10.1 -25.1 10.1 -18.55Q10.1 -11.6 12.55 -8.65Q15.05 -5.7 19.05 -5.7Q21.95 -5.7 24.05 -7.55Q26.2 -9.45 27.15 -13.5" />
</g>
<g id="PathID_52" transform="matrix(0.354979, 0, 0, 0.354979, 76, 36.75)" opacity="1">
</g>
<g id="PathID_53" transform="matrix(0.354979, 0, 0, 0.354979, 88.5, 36.75)" opacity="1">
<path style="fill:#99459A;fill-opacity:1" d="M10.65 -36.65L10.65 -23.1Q14.05 -27.15 18.75 -27.15Q21.2 -27.15 23.15 -26.25Q25.1 -25.35 26.05 -23.95Q27.05 -22.55 27.4 -20.85Q27.8 -19.15 27.8 -15.55L27.8 0L20.75 0L20.75 -14Q20.75 -18.15 20.35 -19.25Q19.95 -20.4 18.9 -21.05Q17.9 -21.75 16.4 -21.75Q14.65 -21.75 13.25 -20.9Q11.9 -20.05 11.25 -18.3Q10.65 -16.6 10.65 -13.25L10.65 0L3.6 0L3.6 -36.65L10.65 -36.65" />
</g>
<g id="PathID_54" transform="matrix(0.354979, 0, 0, 0.354979, 88.5, 36.75)" opacity="1">
</g>
<g id="PathID_55" transform="matrix(0.354979, 0, 0, 0.354979, 99, 36.75)" opacity="1">
<path style="fill:#99459A;fill-opacity:1" d="M8.95 -18.35L2.6 -19.5Q3.65 -23.4 6.25 -25.25Q8.9 -27.15 14.05 -27.15Q18.75 -27.15 21.05 -26Q23.35 -24.9 24.3 -23.2Q25.25 -21.5 25.25 -16.9L25.15 -8.7Q25.15 -5.2 25.45 -3.55Q25.8 -1.9 26.75 0L19.8 0Q19.5 -0.7 19.1 -2.05L18.85 -2.9Q17.05 -1.15 15 -0.25Q12.95 0.6 10.65 0.6Q6.55 0.6 4.2 -1.6Q1.85 -3.8 1.85 -7.2Q1.85 -9.45 2.9 -11.2Q3.95 -12.95 5.9 -13.85Q7.85 -14.8 11.45 -15.5Q16.4 -16.45 18.3 -17.25L18.3 -17.95Q18.3 -20 17.3 -20.85Q16.3 -21.75 13.55 -21.75Q11.65 -21.75 10.6 -20.95Q9.55 -20.2 8.95 -18.35M18.3 -12.65Q16.95 -12.2 14.05 -11.55Q11.15 -10.95 10.25 -10.35Q8.9 -9.4 8.9 -7.9Q8.9 -6.45 9.95 -5.4Q11.05 -4.35 12.75 -4.35Q14.65 -4.35 16.35 -5.55Q17.6 -6.5 18 -7.85Q18.3 -8.75 18.3 -11.25L18.3 -12.65" />
</g>
<g id="PathID_56" transform="matrix(0.354979, 0, 0, 0.354979, 99, 36.75)" opacity="1">
</g>
<g id="PathID_57" transform="matrix(0.354979, 0, 0, 0.354979, 108.45, 36.75)" opacity="1">
<path style="fill:#99459A;fill-opacity:1" d="M3.7 0L3.7 -36.65L10.75 -36.65L10.75 0L3.7 0" />
</g>
<g id="PathID_58" transform="matrix(0.354979, 0, 0, 0.354979, 108.45, 36.75)" opacity="1">
</g>
<g id="PathID_59" transform="matrix(0.354979, 0, 0, 0.354979, 112.9, 36.75)" opacity="1">
<path style="fill:#99459A;fill-opacity:1" d="M3.7 0L3.7 -36.65L10.75 -36.65L10.75 0L3.7 0" />
</g>
<g id="PathID_60" transform="matrix(0.354979, 0, 0, 0.354979, 112.9, 36.75)" opacity="1">
</g>
<g id="PathID_61" transform="matrix(0.354979, 0, 0, 0.354979, 117.3, 36.75)" opacity="1">
<path style="fill:#99459A;fill-opacity:1" d="M19.05 -8.45L26.05 -7.25Q24.7 -3.4 21.75 -1.4Q18.85 0.6 14.5 0.6Q7.55 0.6 4.25 -3.9Q1.65 -7.55 1.65 -13.05Q1.65 -19.65 5.1 -23.4Q8.55 -27.15 13.8 -27.15Q19.75 -27.15 23.15 -23.2Q26.6 -19.3 26.45 -11.25L8.85 -11.25Q8.9 -8.1 10.5 -6.35Q12.15 -4.65 14.55 -4.65Q16.2 -4.65 17.3 -5.55Q18.45 -6.45 19.05 -8.45M19.45 -15.55Q19.35 -18.55 17.85 -20.15Q16.35 -21.75 14.2 -21.75Q11.9 -21.75 10.4 -20.05Q8.95 -18.4 8.95 -15.55L19.45 -15.55" />
</g>
<g id="PathID_62" transform="matrix(0.354979, 0, 0, 0.354979, 117.3, 36.75)" opacity="1">
</g>
<g id="PathID_63" transform="matrix(0.354979, 0, 0, 0.354979, 126.8, 36.75)" opacity="1">
<path style="fill:#99459A;fill-opacity:1" d="M27.8 0L20.75 0L20.75 -13.5Q20.75 -17.8 20.3 -19.05Q19.85 -20.35 18.8 -21.05Q17.8 -21.75 16.4 -21.75Q14.6 -21.75 13.15 -20.75Q11.7 -19.75 11.15 -18.1Q10.65 -16.45 10.65 -12L10.65 0L3.6 0L3.6 -26.55L10.15 -26.55L10.15 -22.65Q13.6 -27.15 18.85 -27.15Q21.2 -27.15 23.1 -26.3Q25.05 -25.45 26 -24.15Q27 -22.85 27.4 -21.2Q27.8 -19.55 27.8 -16.5L27.8 0" />
</g>
<g id="PathID_64" transform="matrix(0.354979, 0, 0, 0.354979, 126.8, 36.75)" opacity="1">
</g>
<g id="PathID_65" transform="matrix(0.354979, 0, 0, 0.354979, 137.25, 36.75)" opacity="1">
<path style="fill:#99459A;fill-opacity:1" d="M3 1.7L11.05 2.7Q11.2 4.15 11.95 4.65Q12.95 5.4 15.1 5.4Q17.85 5.4 19.2 4.6Q20.15 4.05 20.6 2.8Q20.95 1.95 20.95 -0.45L20.95 -4.35Q17.8 0 13 0Q7.65 0 4.5 -4.5Q2.1 -8.1 2.1 -13.4Q2.1 -20.1 5.3 -23.6Q8.5 -27.15 13.25 -27.15Q18.2 -27.15 21.4 -22.8L21.4 -26.55L28 -26.55L28 -2.7Q28 2 27.2 4.3Q26.4 6.65 25 7.95Q23.6 9.3 21.25 10.05Q18.95 10.8 15.35 10.8Q8.6 10.8 5.75 8.45Q2.95 6.15 2.95 2.6L3 1.7M9.3 -13.8Q9.3 -9.6 10.9 -7.65Q12.55 -5.7 14.95 -5.7Q17.5 -5.7 19.25 -7.7Q21.05 -9.7 21.05 -13.65Q21.05 -17.75 19.35 -19.75Q17.65 -21.75 15.05 -21.75Q12.55 -21.75 10.9 -19.75Q9.3 -17.8 9.3 -13.8" />
</g>
<g id="PathID_66" transform="matrix(0.354979, 0, 0, 0.354979, 137.25, 36.75)" opacity="1">
</g>
<g id="PathID_67" transform="matrix(0.354979, 0, 0, 0.354979, 147.75, 36.75)" opacity="1">
<path style="fill:#99459A;fill-opacity:1" d="M19.05 -8.45L26.05 -7.25Q24.7 -3.4 21.75 -1.4Q18.85 0.6 14.5 0.6Q7.55 0.6 4.25 -3.9Q1.65 -7.55 1.65 -13.05Q1.65 -19.65 5.1 -23.4Q8.55 -27.15 13.8 -27.15Q19.75 -27.15 23.15 -23.2Q26.6 -19.3 26.45 -11.25L8.85 -11.25Q8.9 -8.1 10.5 -6.35Q12.15 -4.65 14.55 -4.65Q16.2 -4.65 17.3 -5.55Q18.45 -6.45 19.05 -8.45M19.45 -15.55Q19.35 -18.55 17.85 -20.15Q16.35 -21.75 14.2 -21.75Q11.9 -21.75 10.4 -20.05Q8.95 -18.4 8.95 -15.55L19.45 -15.55" />
</g>
<g id="PathID_68" transform="matrix(0.354979, 0, 0, 0.354979, 147.75, 36.75)" opacity="1">
</g>
<g id="PathID_69" transform="matrix(0.11573, 0, 0, 0.11573, 33.05, 48.9)" opacity="1">
<path style="fill:#0065A3;fill-opacity:1" d="M36 -36.1Q51 -21.1 51 0Q51 21.1 36 36Q21.1 51 0 51Q-21.1 51 -36.1 36Q-51 21.1 -51 0Q-51 -21.1 -36.1 -36.1Q-21.1 -51 0 -51Q21.1 -51 36 -36.1" />
</g>
<g id="PathID_70" transform="matrix(0.11573, 0, 0, 0.11573, 33.05, 48.9)" opacity="1">
</g>
<g id="PathID_71" transform="matrix(0.0882062, 0, 0, 0.0882062, 32.65, 12)" opacity="1">
<path style="fill:#AEBC20;fill-opacity:1" d="M36 -36.1Q51 -21.1 51 0Q51 21.1 36 36Q21.1 51 0 51Q-21.1 51 -36.1 36Q-51 21.1 -51 0Q-51 -21.1 -36.1 -36.1Q-21.1 -51 0 -51Q21.1 -51 36 -36.1" />
</g>
<g id="PathID_72" transform="matrix(0.0882062, 0, 0, 0.0882062, 32.65, 12)" opacity="1">
</g>
<g id="PathID_73" transform="matrix(0.354979, 0, 0, 0.354979, 131.7, 19.85)" opacity="1">
<path style="fill:#99459A;fill-opacity:1" d="M3.75 0L3.75 -36.65L15.6 -36.65Q22.35 -36.65 24.4 -36.1Q27.55 -35.25 29.65 -32.5Q31.8 -29.75 31.8 -25.35Q31.8 -22 30.55 -19.7Q29.35 -17.4 27.45 -16.05Q25.55 -14.75 23.6 -14.35Q20.95 -13.85 15.95 -13.85L11.15 -13.85L11.15 0L3.75 0M11.15 -30.45L11.15 -20.05L15.15 -20.05Q19.5 -20.05 20.95 -20.6Q22.45 -21.2 23.3 -22.4Q24.15 -23.65 24.15 -25.25Q24.15 -27.25 22.95 -28.55Q21.8 -29.85 20 -30.2Q18.65 -30.45 14.7 -30.45L11.15 -30.45" />
</g>
<g id="PathID_74" transform="matrix(0.354979, 0, 0, 0.354979, 131.7, 19.85)" opacity="1">
</g>
<g id="PathID_75" transform="matrix(0.354979, 0, 0, 0.354979, 143.2, 19.85)" opacity="1">
<path style="fill:#99459A;fill-opacity:1" d="M8.95 -18.35L2.6 -19.5Q3.65 -23.4 6.25 -25.25Q8.9 -27.15 14.05 -27.15Q18.75 -27.15 21.05 -26Q23.35 -24.9 24.3 -23.2Q25.25 -21.5 25.25 -16.9L25.15 -8.7Q25.15 -5.2 25.45 -3.55Q25.8 -1.9 26.75 0L19.8 0Q19.5 -0.7 19.1 -2.05L18.85 -2.9Q17.05 -1.15 15 -0.25Q12.95 0.6 10.65 0.6Q6.55 0.6 4.2 -1.6Q1.85 -3.8 1.85 -7.2Q1.85 -9.45 2.9 -11.2Q3.95 -12.95 5.9 -13.85Q7.85 -14.8 11.45 -15.5Q16.4 -16.45 18.3 -17.25L18.3 -17.95Q18.3 -20 17.3 -20.85Q16.3 -21.75 13.55 -21.75Q11.65 -21.75 10.6 -20.95Q9.55 -20.2 8.95 -18.35M18.3 -12.65Q16.95 -12.2 14.05 -11.55Q11.15 -10.95 10.25 -10.35Q8.9 -9.4 8.9 -7.9Q8.9 -6.45 9.95 -5.4Q11.05 -4.35 12.75 -4.35Q14.65 -4.35 16.35 -5.55Q17.6 -6.5 18 -7.85Q18.3 -8.75 18.3 -11.25L18.3 -12.65" />
</g>
<g id="PathID_76" transform="matrix(0.354979, 0, 0, 0.354979, 143.2, 19.85)" opacity="1">
</g>
<g id="PathID_77" transform="matrix(0.354979, 0, 0, 0.354979, 152.65, 19.85)" opacity="1">
<path style="fill:#99459A;fill-opacity:1" d="M3.45 0L3.45 -36.65L10.5 -36.65L10.5 -17.2L18.65 -26.55L27.3 -26.55L18.25 -16.8L27.95 0L20.35 0L13.7 -11.9L10.5 -8.5L10.5 0L3.45 0" />
</g>
<g id="PathID_78" transform="matrix(0.354979, 0, 0, 0.354979, 152.65, 19.85)" opacity="1">
</g>
<g id="PathID_79" transform="matrix(0.354979, 0, 0, 0.354979, 162.15, 19.85)" opacity="1">
<path style="fill:#99459A;fill-opacity:1" d="M3.7 -30.15L3.7 -36.65L10.75 -36.65L10.75 -30.15L3.7 -30.15M3.7 0L3.7 -26.55L10.75 -26.55L10.75 0L3.7 0" />
</g>
<g id="PathID_80" transform="matrix(0.354979, 0, 0, 0.354979, 162.15, 19.85)" opacity="1">
</g>
<g id="PathID_81" transform="matrix(0.354979, 0, 0, 0.354979, 166.55, 19.85)" opacity="1">
<path style="fill:#99459A;fill-opacity:1" d="M1.2 -7.55L8.25 -8.65Q8.7 -6.6 10.05 -5.55Q11.45 -4.5 13.9 -4.5Q16.65 -4.5 18 -5.45Q18.95 -6.15 18.95 -7.35Q18.95 -8.15 18.45 -8.65Q17.9 -9.15 16.1 -9.6Q7.6 -11.45 5.3 -13Q2.2 -15.15 2.2 -19Q2.2 -22.45 4.9 -24.8Q7.6 -27.15 13.35 -27.15Q18.8 -27.15 21.45 -25.35Q24.1 -23.6 25.1 -20.15L18.45 -18.9Q18 -20.45 16.8 -21.25Q15.65 -22.1 13.45 -22.1Q10.7 -22.1 9.5 -21.3Q8.75 -20.75 8.75 -19.9Q8.75 -19.15 9.4 -18.6Q10.35 -17.9 15.95 -16.6Q21.55 -15.35 23.8 -13.5Q26 -11.65 26 -8.3Q26 -4.65 22.95 -2Q19.9 0.6 13.9 0.6Q8.5 0.6 5.3 -1.55Q2.15 -3.75 1.2 -7.55" />
</g>
<g id="PathID_82" transform="matrix(0.354979, 0, 0, 0.354979, 166.55, 19.85)" opacity="1">
</g>
<g id="PathID_83" transform="matrix(0.354979, 0, 0, 0.354979, 176.05, 19.85)" opacity="1">
<path style="fill:#99459A;fill-opacity:1" d="M15.9 -26.55L15.9 -20.95L11.1 -20.95L11.1 -10.25Q11.1 -7 11.2 -6.45Q11.35 -5.9 11.85 -5.55Q12.35 -5.25 13.05 -5.25Q14 -5.25 15.85 -5.9L16.5 -0.45Q14 0.6 10.9 0.6Q9 0.6 7.45 0Q5.95 -0.65 5.25 -1.65Q4.55 -2.7 4.25 -4.4Q4.05 -5.65 4.05 -9.35L4.05 -20.95L0.8 -20.95L0.8 -26.55L4.05 -26.55L4.05 -31.85L11.1 -36L11.1 -26.55L15.9 -26.55" />
</g>
<g id="PathID_84" transform="matrix(0.354979, 0, 0, 0.354979, 176.05, 19.85)" opacity="1">
</g>
<g id="PathID_85" transform="matrix(0.354979, 0, 0, 0.354979, 181.45, 19.85)" opacity="1">
<path style="fill:#99459A;fill-opacity:1" d="M8.95 -18.35L2.6 -19.5Q3.65 -23.4 6.25 -25.25Q8.9 -27.15 14.05 -27.15Q18.75 -27.15 21.05 -26Q23.35 -24.9 24.3 -23.2Q25.25 -21.5 25.25 -16.9L25.15 -8.7Q25.15 -5.2 25.45 -3.55Q25.8 -1.9 26.75 0L19.8 0Q19.5 -0.7 19.1 -2.05L18.85 -2.9Q17.05 -1.15 15 -0.25Q12.95 0.6 10.65 0.6Q6.55 0.6 4.2 -1.6Q1.85 -3.8 1.85 -7.2Q1.85 -9.45 2.9 -11.2Q3.95 -12.95 5.9 -13.85Q7.85 -14.8 11.45 -15.5Q16.4 -16.45 18.3 -17.25L18.3 -17.95Q18.3 -20 17.3 -20.85Q16.3 -21.75 13.55 -21.75Q11.65 -21.75 10.6 -20.95Q9.55 -20.2 8.95 -18.35M18.3 -12.65Q16.95 -12.2 14.05 -11.55Q11.15 -10.95 10.25 -10.35Q8.9 -9.4 8.9 -7.9Q8.9 -6.45 9.95 -5.4Q11.05 -4.35 12.75 -4.35Q14.65 -4.35 16.35 -5.55Q17.6 -6.5 18 -7.85Q18.3 -8.75 18.3 -11.25L18.3 -12.65" />
</g>
<g id="PathID_86" transform="matrix(0.354979, 0, 0, 0.354979, 181.45, 19.85)" opacity="1">
</g>
<g id="PathID_87" transform="matrix(0.354979, 0, 0, 0.354979, 190.95, 19.85)" opacity="1">
<path style="fill:#99459A;fill-opacity:1" d="M27.8 0L20.75 0L20.75 -13.5Q20.75 -17.8 20.3 -19.05Q19.85 -20.35 18.8 -21.05Q17.8 -21.75 16.4 -21.75Q14.6 -21.75 13.15 -20.75Q11.7 -19.75 11.15 -18.1Q10.65 -16.45 10.65 -12L10.65 0L3.6 0L3.6 -26.55L10.15 -26.55L10.15 -22.65Q13.6 -27.15 18.85 -27.15Q21.2 -27.15 23.1 -26.3Q25.05 -25.45 26 -24.15Q27 -22.85 27.4 -21.2Q27.8 -19.55 27.8 -16.5L27.8 0" />
</g>
<g id="PathID_88" transform="matrix(0.354979, 0, 0, 0.354979, 190.95, 19.85)" opacity="1">
</g>
</svg>
