<?xml version="1.0" encoding="utf-8"?>
<svg version="1.1" id="Layer_1"
xmlns="http://www.w3.org/2000/svg"
xmlns:xlink="http://www.w3.org/1999/xlink"
width="63px" height="68px"
xml:space="preserve">
<g id="PathID_11" transform="matrix(0.37554, -0.0120947, 0, 0.375735, 13.85, 7.9)" opacity="1">
<path style="fill:#06038D;fill-opacity:1" d="M81.85 70.8Q64.8 87.65 55.45 87.45L41.55 87.45Q33.65 87.45 15.8 71.05L13.3 71.85Q14.55 79.15 32 90.55Q36.15 100.3 36.15 108.65L61.7 108.65Q62.1 100.3 66.7 90.55Q81.85 78.9 84.75 71.25L81.85 70.8M83.95 82.65Q70.45 93.65 69.4 110.7Q69.2 114.25 67.1 114.85L68.15 115.9L68.15 119L64.8 122.35L33.05 122.35L29.7 119L29.7 116.95L30.75 115.9L30.75 114.85Q28.45 114.85 28.9 110.7Q26.4 93.45 11.65 81.85Q0 67.1 0 52.1L0 44Q7.1 2.9 48.85 0Q89.1 1.65 98.25 44L98.05 52.35Q97.45 66.05 83.95 82.65M68.35 123.4L68.35 126.5L65.05 129.6L33.25 129.6L29.95 126.5L29.95 123.4L32 123.4L32 126.5L66.3 126.5L66.3 123.4L68.35 123.4M66.05 114.85L31.8 114.85L31.8 119L66.05 119L66.05 114.85M68.35 130.65L68.35 134L65.05 137.1L33.25 137.1L29.95 134L29.95 130.65L32 130.65L32 134L66.3 134L66.3 130.65L68.35 130.65M66.3 138.15L68.35 138.15L68.35 141.45Q67.95 144.55 62.55 143.55L49.05 149.95L35.75 143.55Q30.15 144.55 29.95 141.45L29.95 138.15L32 138.15L32 141.45L66.3 141.45L66.3 138.15" />
</g>
<g id="PathID_12" transform="matrix(0.37554, -0.0120947, 0, 0.375735, 13.85, 7.9)" opacity="1">
</g>
</svg>
