<?xml version="1.0" encoding="utf-8"?>
<svg version="1.1" id="Layer_1"
xmlns="http://www.w3.org/2000/svg"
xmlns:xlink="http://www.w3.org/1999/xlink"
width="63px" height="68px"
xml:space="preserve">
<g id="PathID_7" transform="matrix(0.375415, -0.0120907, 0, 0.375609, 4.2, 9.55)" opacity="1">
<path style="fill:#06038D;fill-opacity:1" d="M123.6 22.05Q123.6 23.85 122.45 25.05Q121.25 26.2 119.35 26.2Q117.75 26.2 116.6 25.05Q115.55 23.65 115.55 22.05Q115.55 20.5 116.6 19.3Q117.75 18.15 119.35 18.15Q121.05 18.15 122.45 19.3Q123.6 20.5 123.6 22.05M134.4 32.15Q134.4 34.45 132.5 36.25Q130.9 37.95 128.35 37.95Q125.8 37.95 124.25 36.25Q122.45 34.45 122.45 32.15Q122.45 29.7 124.25 27.8Q125.8 26.2 128.35 26.2Q130.9 26.2 132.5 27.8Q134.4 29.7 134.4 32.15M130.9 43.7Q133.45 41.35 136.65 41.35Q139.9 41.35 142.35 43.7Q144.7 46.25 144.7 49.4Q144.7 52.7 142.35 54.9Q139.9 57.25 136.65 57.25Q133.45 57.25 130.9 54.9Q128.6 52.7 128.6 49.4Q128.6 46.25 130.9 43.7M112.45 19.5L112.45 20.25Q103.35 12.85 92 9.15Q100.6 18.35 105.8 34.05Q111.6 51.55 111.6 71.8Q111.6 89.5 107.15 104.85Q115.95 107.6 123.6 112.25L123.6 111.95L123.8 111.95L128.8 115Q118.95 128.05 104.2 135.7Q89.05 143.3 71.75 143.3Q41.85 143.3 21 122.35Q0 101.45 0 71.8Q0 41.9 21 20.9Q41.85 0 71.75 0Q96.9 0 116.4 15.6Q112.45 15.6 112.45 19.5M100.05 34.7Q98.25 29.4 95.7 24.6Q88.4 9.9 78.65 6.4L74.85 5.95L74.85 37.95Q87.65 37.65 99.65 34.7L100.05 34.7M101.45 40.2Q88.1 43.7 74.85 43.9L74.85 68.5L105.55 68.5Q105.15 53.1 101.65 40.2L101.45 40.2M150 72.4Q150 76.55 147 79.5Q144.05 82.25 139.9 82.25Q136 82.25 133.05 79.5Q129.95 76.55 129.95 72.4Q129.95 68.3 133.05 65.5Q136 62.55 139.9 62.55Q144.05 62.55 147 65.5Q150 68.3 150 72.4M134.4 87.15Q139.4 87.15 142.9 90.65Q146.3 94.05 146.3 99.1Q146.3 103.9 142.9 107.6Q139.4 111.1 134.4 111.1Q129.55 111.1 126.05 107.6Q122.65 103.9 122.65 99.1Q122.65 94.05 126.05 90.65Q129.55 87.15 134.4 87.15M64.85 6.4Q55.2 9.9 47.6 24.6Q45.35 29.4 43.45 34.7L43.75 34.7Q55.65 37.65 68.6 37.95L68.6 5.95L64.85 6.4M41.65 40.2Q38.15 53.1 37.75 68.5L68.6 68.5L68.6 43.9Q55.2 43.7 41.85 40.2L41.65 40.2M19.6 31.5Q7.2 47.6 6.05 68.5L31.8 68.5Q32.2 52.9 36.15 38.8Q26.9 35.65 19.6 31.5M37.95 33.1Q43.05 18.15 51.5 9.15Q34.95 14.45 23.2 27.15Q29.9 30.55 37.95 33.1M6.05 74.75Q6.9 95.65 19.8 111.95Q27.35 107.4 36.15 104.65Q32.2 90.65 31.8 74.75L6.05 74.75M37.75 74.75Q37.95 90.1 41.65 103.05Q53.85 99.75 68.6 99.55L68.6 74.75L37.75 74.75M74.85 137.3L78.65 137.05Q88.4 133.35 95.7 118.65Q98.05 113.85 100.05 108.75Q88.6 105.8 74.85 105.6L74.85 137.3M47.6 118.65Q55.2 133.35 65.4 137.05L68.6 137.3L68.6 105.6Q55.45 105.8 43.45 108.75Q45.35 113.85 47.6 118.65M23.5 116.4Q34.95 128.8 51.3 134.1Q43.05 125.1 37.95 110.35Q29.9 112.7 23.5 116.4M119.9 116.6Q113.2 112.7 105.55 110.35Q100.25 125.1 92.2 134.1Q108.35 128.8 119.9 116.6M74.85 74.75L74.85 99.55Q89.45 100.1 101.65 103.25Q105.35 90.1 105.55 74.75L74.85 74.75" />
</g>
<g id="PathID_8" transform="matrix(0.375415, -0.0120907, 0, 0.375609, 4.2, 9.55)" opacity="1">
</g>
</svg>
