<?xml version="1.0" encoding="utf-8"?>
<svg version="1.1" id="Layer_1"
xmlns="http://www.w3.org/2000/svg"
xmlns:xlink="http://www.w3.org/1999/xlink"
width="63px" height="68px"
xml:space="preserve">
<g id="PathID_9" transform="matrix(0.375415, -0.0120907, 0, 0.375609, 9.1, 8.1)" opacity="1">
<path style="fill:#06038D;fill-opacity:1" d="M106 10.2L103.8 17.95L103.8 19.25Q103.8 20.8 107 23.15L113.8 29.5L120.75 38.8Q123.8 44.25 123.8 51.2Q123.8 56 121.4 59.7L117.7 67.9L115.55 81.45L117.7 142.2L117.45 144.55Q117.45 145.9 115.8 145.9L113.6 145L111.8 143.7L99.65 89.85L97.7 92.05L89.7 140L88.4 142.2L85.55 144.15L82.6 145.45L79.7 146.1L75.85 145Q73.7 143.7 73.8 141.9L74.05 141.8L70.6 142.65L61.7 140.9L59.55 140L59.55 98.1L56.25 109.35L54.95 120.7L55.6 145.9L49.4 144.55L38.05 138.1Q35.4 136.55 31.7 135.9Q29.75 129.8 29.35 123.05L27.15 95.7Q25.85 88.95 21.75 84Q20 84.85 18.9 87.65L7.9 147.9L7.25 148.9L6.1 150L5 150Q1.55 150 0.65 148.55L0 144.35L6.1 78.1Q6.1 70.3 3.9 63.35Q1.8 56.65 1.8 48.85Q1.8 41.65 4.2 37.35L8.9 29.7L13.9 25.1Q16.15 23.65 16.15 22.3Q16.15 18.4 14.1 14.95Q12 11.5 12 8Q12 4.3 15 3.2L21.1 1.95L23.55 2.1L26.5 3.2L28.9 4.75Q30 5.6 30 7.1Q30 10.6 28.5 14.5L26.1 21.85L35.85 32.05L36.5 109.35L38.95 126.35L39.8 129.8L43.95 133.7L46.05 95.95L39.55 61.85L39.8 49.9L41.1 43.15Q41.75 39.95 43.95 37.95L55.85 30.15L55.85 17.95L53.85 14.1Q54.75 10.85 57.15 10.2L61.9 9.7L66.7 10.2Q68.6 10.85 69.7 14.1L67.7 27.95L67.7 30.4Q67.7 33.25 69.7 34.5L77.95 40.6Q79.7 42.15 79.7 46L79.7 82.1L76.5 83.35L73.8 85.75L70.8 107.95Q69.5 117.9 69.5 129.15Q69.5 133.25 72.35 136.8L74.45 140.65L76 139.1L79.5 136.35L82.35 132.9L83.85 127.9L85.8 67.9L83.85 64L83.85 36L85.8 32.05L93.8 24.05L89.7 11.85L89.7 10.85L89.45 8.8Q89.45 6.05 91 3.2Q92.25 0 95.55 0Q99 0 102.55 2.55Q106 4.95 106 9.05L106 10.2" />
</g>
<g id="PathID_10" transform="matrix(0.375415, -0.0120907, 0, 0.375609, 9.1, 8.1)" opacity="1">
</g>
</svg>
